<?xml version="1.0" encoding="UTF-8" standalone="no"?>
<!-- Created with Inkscape (http://www.inkscape.org/) -->

<svg
   version="1.1"
   id="svg2"
   width="1000"
   height="666.66669"
   viewBox="0 0 1000 666.66669"
   sodipodi:docname="18771510_6029644.ai"
   xmlns:inkscape="http://www.inkscape.org/namespaces/inkscape"
   xmlns:sodipodi="http://sodipodi.sourceforge.net/DTD/sodipodi-0.dtd"
   xmlns="http://www.w3.org/2000/svg"
   xmlns:svg="http://www.w3.org/2000/svg">
  <defs
     id="defs6">
    <clipPath
       clipPathUnits="userSpaceOnUse"
       id="clipPath16">
      <path
         d="M 0,500 H 750 V 0 H 0 Z"
         id="path14" />
    </clipPath>
    <clipPath
       clipPathUnits="userSpaceOnUse"
       id="clipPath92">
      <path
         d="M 0,500 H 750 V 0 H 0 Z"
         id="path90" />
    </clipPath>
    <clipPath
       clipPathUnits="userSpaceOnUse"
       id="clipPath112">
      <path
         d="M 0,500 H 750 V 0 H 0 Z"
         id="path110" />
    </clipPath>
    <clipPath
       clipPathUnits="userSpaceOnUse"
       id="clipPath124">
      <path
         d="M 0,500 H 750 V 0 H 0 Z"
         id="path122" />
    </clipPath>
    <clipPath
       clipPathUnits="userSpaceOnUse"
       id="clipPath152">
      <path
         d="m 50.1251,130.01 h 24.657 V 63.9212 h -24.657 z"
         id="path150" />
    </clipPath>
    <clipPath
       clipPathUnits="userSpaceOnUse"
       id="clipPath168">
      <path
         d="m 60.1009,126.725 h 24.657 V 60.6365 h -24.657 z"
         id="path166" />
    </clipPath>
    <clipPath
       clipPathUnits="userSpaceOnUse"
       id="clipPath184">
      <path
         d="M 70.69,123.59 H 95.3469 V 57.5013 H 70.69 Z"
         id="path182" />
    </clipPath>
    <clipPath
       clipPathUnits="userSpaceOnUse"
       id="clipPath208">
      <path
         d="M 0,500 H 750 V 0 H 0 Z"
         id="path206" />
    </clipPath>
    <clipPath
       clipPathUnits="userSpaceOnUse"
       id="clipPath264">
      <path
         d="M 0,500 H 750 V 0 H 0 Z"
         id="path262" />
    </clipPath>
    <clipPath
       clipPathUnits="userSpaceOnUse"
       id="clipPath336">
      <path
         d="m 614.306,427.868 h 61.032 v -16.817 h -61.032 z"
         id="path334" />
    </clipPath>
    <clipPath
       clipPathUnits="userSpaceOnUse"
       id="clipPath356">
      <path
         d="m 641.13,409.653 h 39.009 V 379.116 H 641.13 Z"
         id="path354" />
    </clipPath>
    <clipPath
       clipPathUnits="userSpaceOnUse"
       id="clipPath478">
      <path
         d="m 283.139,240.743 h 93.018 v -65.178 h -93.018 z"
         id="path476" />
    </clipPath>
    <clipPath
       clipPathUnits="userSpaceOnUse"
       id="clipPath494">
      <path
         d="M 280.182,219.585 H 384.703 V 154.683 H 280.182 Z"
         id="path492" />
    </clipPath>
    <clipPath
       clipPathUnits="userSpaceOnUse"
       id="clipPath514">
      <path
         d="M 457.352,252.396 H 644.56 V 54.843 H 457.352 Z"
         id="path512" />
    </clipPath>
    <clipPath
       clipPathUnits="userSpaceOnUse"
       id="clipPath578">
      <path
         d="m 650.521,156.749 h 45.261 v -12.753 h -45.261 z"
         id="path576" />
    </clipPath>
    <clipPath
       clipPathUnits="userSpaceOnUse"
       id="clipPath594">
      <path
         d="m 398.595,345.864 h 41.008 v -26.812 h -41.008 z"
         id="path592" />
    </clipPath>
  </defs>
  <sodipodi:namedview
     id="namedview4"
     pagecolor="#ffffff"
     bordercolor="#000000"
     borderopacity="0.25"
     inkscape:showpageshadow="2"
     inkscape:pageopacity="0.0"
     inkscape:pagecheckerboard="0"
     inkscape:deskcolor="#d1d1d1" />
  <g
     id="g8"
     inkscape:groupmode="layer"
     inkscape:label="18771510_6029644"
     transform="matrix(1.3333333,0,0,-1.3333333,0,666.66667)">
    <g
       id="g10">
      <g
         id="g12"
         clip-path="url(#clipPath16)">
        <g
           id="g18"
           transform="translate(355.0028,348.5705)">
          <path
             d="m 0,0 11.44,-3.964 9.155,7.926 -2.287,11.89 -11.441,3.965 -9.154,-7.926 z m 11.593,-12.061 c -0.797,0 -1.598,0.131 -2.37,0.399 l -12.244,4.243 c -2.444,0.847 -4.266,2.951 -4.755,5.491 l -2.448,12.725 c -0.488,2.54 0.423,5.17 2.379,6.864 l 9.797,8.482 c 1.955,1.694 4.687,2.219 7.132,1.372 l 12.244,-4.243 c 2.444,-0.847 4.267,-2.951 4.755,-5.492 L 28.531,5.056 c 0.488,-2.54 -0.423,-5.169 -2.377,-6.863 l -9.798,-8.483 c -1.337,-1.158 -3.04,-1.771 -4.763,-1.771"
             style="fill:#f5f5f5;fill-opacity:1;fill-rule:nonzero;stroke:none"
             id="path20" />
        </g>
        <g
           id="g22"
           transform="translate(503.8922,383.4291)">
          <path
             d="M 0,0 5.395,-1.869 9.711,1.868 8.632,7.474 3.237,9.344 -1.079,5.607 Z m 5.546,-9.965 c -0.796,0 -1.597,0.13 -2.369,0.398 l -6.198,2.147 c -2.446,0.848 -4.267,2.953 -4.755,5.493 l -1.239,6.44 c -0.489,2.538 0.421,5.168 2.377,6.862 l 4.961,4.296 c 1.956,1.693 4.689,2.219 7.133,1.371 l 6.196,-2.148 c 2.446,-0.847 4.268,-2.952 4.756,-5.493 L 17.646,2.962 C 18.134,0.421 17.224,-2.207 15.27,-3.9 L 10.309,-8.195 C 8.972,-9.354 7.27,-9.965 5.546,-9.965"
             style="fill:#f5f5f5;fill-opacity:1;fill-rule:nonzero;stroke:none"
             id="path24" />
        </g>
        <g
           id="g26"
           transform="translate(684.7282,296.1608)">
          <path
             d="M 0,0 C -0.064,0 -0.127,-0.005 -0.19,-0.015 L -5.709,-0.861 C -6.153,-0.929 -6.53,-1.231 -6.693,-1.65 l -2.028,-5.203 c -0.163,-0.418 -0.09,-0.897 0.193,-1.249 l 3.491,-4.355 c 0.281,-0.352 0.742,-0.528 1.177,-0.459 l 5.519,0.846 c 0.444,0.068 0.821,0.371 0.984,0.79 l 2.028,5.202 c 0.163,0.419 0.09,0.898 -0.193,1.249 v 0 L 0.987,-0.473 C 0.746,-0.172 0.38,0 0,0 m -4.046,-16.93 c -1.582,-0.001 -3.106,0.717 -4.112,1.97 l -3.491,4.356 c -1.172,1.462 -1.479,3.456 -0.799,5.203 l 2.027,5.202 c 0.679,1.746 2.253,3.008 4.105,3.292 l 5.52,0.847 C 1.051,4.225 2.934,3.491 4.108,2.029 L 7.6,-2.327 c 1.172,-1.462 1.478,-3.455 0.798,-5.202 l -2.027,-5.202 c -0.68,-1.747 -2.253,-3.009 -4.105,-3.293 l -5.52,-0.846 c -0.264,-0.041 -0.528,-0.06 -0.792,-0.06"
             style="fill:#e1e1e1;fill-opacity:1;fill-rule:nonzero;stroke:none"
             id="path28" />
        </g>
        <g
           id="g30"
           transform="translate(75.2355,256.5973)">
          <path
             d="m 0,0 z m -25.479,-3.788 8.035,-10.022 12.697,1.946 4.662,11.97 -8.035,10.023 -12.696,-1.948 z m 7.943,-17.04 c -2.033,0 -3.993,0.922 -5.285,2.534 l -8.205,10.234 c -1.506,1.879 -1.899,4.441 -1.025,6.686 l 4.761,12.223 c 0.875,2.245 2.897,3.865 5.277,4.231 l 12.967,1.988 c 2.384,0.365 4.796,-0.575 6.303,-2.455 L 5.461,4.379 C 6.968,2.5 7.361,-0.062 6.488,-2.307 L 1.726,-14.531 c -0.874,-2.245 -2.896,-3.866 -5.278,-4.232 l -12.966,-1.988 c -0.339,-0.052 -0.68,-0.077 -1.018,-0.077"
             style="fill:#e1e1e1;fill-opacity:1;fill-rule:nonzero;stroke:none"
             id="path32" />
        </g>
        <g
           id="g34"
           transform="translate(83.1491,345.3244)">
          <path
             d="m 0,0 c -0.45,0 -0.87,-0.242 -1.095,-0.632 l -3.866,-6.697 c -0.225,-0.389 -0.225,-0.874 0,-1.263 l 3.866,-6.697 c 0.225,-0.39 0.645,-0.632 1.095,-0.632 h 7.732 c 0.451,0 0.87,0.242 1.096,0.632 l 3.866,6.697 c 0.225,0.389 0.225,0.874 0,1.263 L 8.828,-0.632 C 8.603,-0.242 8.183,0 7.732,0 Z M 7.732,-19.921 H 0 c -1.875,0 -3.622,1.008 -4.559,2.632 l -3.866,6.697 c -0.937,1.623 -0.937,3.64 0,5.263 l 3.866,6.697 C -3.622,2.992 -1.875,4 0,4 h 7.732 c 1.874,0 3.622,-1.008 4.559,-2.631 l 3.867,-6.698 c 0.937,-1.623 0.937,-3.64 0,-5.263 l -3.867,-6.698 c -0.937,-1.623 -2.685,-2.631 -4.559,-2.631"
             style="fill:#ececec;fill-opacity:1;fill-rule:nonzero;stroke:none"
             id="path36" />
        </g>
        <g
           id="g38"
           transform="translate(222.7793,401.0484)">
          <path
             d="m 0,0 -15.077,9.488 -18.512,31.24 -25.75,15.767 -4.985,-5.397 2.619,-3.516 8.123,-10.902 32.276,-43.32 13.161,-7.242 z"
             style="fill:#ececec;fill-opacity:1;fill-rule:nonzero;stroke:none"
             id="path40" />
        </g>
        <g
           id="g42"
           transform="translate(203.8338,378.5865)">
          <path
             d="m 0,0 -4.318,14.388 -47.425,54.176 -6.323,-3.741 10.012,-28.485 27.53,-27.04 6.17,-16.889 z"
             style="fill:#ececec;fill-opacity:1;fill-rule:nonzero;stroke:none"
             id="path44" />
        </g>
        <g
           id="g46"
           transform="translate(229.518,398.3676)">
          <path
             d="m 0,0 c 0,0 53.554,-29.39 64.342,-39.312 10.788,-9.922 35.995,-51.229 33.436,-56.505 -2.56,-5.275 -4.519,-5.955 -10.329,-0.88 -5.81,5.075 -24.583,33.422 -29.631,38.002 -5.047,4.579 -67.775,41.38 -67.775,41.38 z"
             style="fill:#e1e1e1;fill-opacity:1;fill-rule:nonzero;stroke:none"
             id="path48" />
        </g>
        <g
           id="g50"
           transform="translate(188.9481,386.3254)">
          <path
             d="M 0,0 C -9.065,2.356 -14.504,11.615 -12.148,20.68 -9.791,29.746 -0.532,35.184 8.533,32.828 17.598,30.472 23.037,21.213 20.681,12.148 18.324,3.082 9.065,-2.356 0,0"
             style="fill:#ececec;fill-opacity:1;fill-rule:nonzero;stroke:none"
             id="path52" />
        </g>
        <g
           id="g54"
           transform="translate(188.9481,386.3253)">
          <path
             d="m 0,0 c 0.014,0.089 1.458,-0.405 4.142,-0.427 1.338,-0.031 2.983,0.18 4.802,0.708 1.816,0.538 3.807,1.471 5.675,2.956 1.853,1.482 3.624,3.497 4.788,6.049 1.142,2.538 1.835,5.556 1.49,8.69 -0.126,1.565 -0.521,3.145 -1.142,4.664 -0.281,0.775 -0.697,1.496 -1.085,2.239 -0.461,0.7 -0.902,1.425 -1.463,2.071 -2.13,2.677 -5.24,4.682 -8.737,5.625 -3.515,0.881 -7.209,0.644 -10.374,-0.657 -0.805,-0.291 -1.543,-0.709 -2.287,-1.096 -0.7,-0.46 -1.415,-0.888 -2.038,-1.427 -1.283,-1.025 -2.397,-2.213 -3.27,-3.518 -1.827,-2.57 -2.692,-5.544 -2.93,-8.317 -0.225,-2.796 0.34,-5.418 1.237,-7.616 0.909,-2.206 2.194,-3.991 3.517,-5.343 1.333,-1.347 2.666,-2.333 3.85,-2.957 C -1.47,0.356 0.031,0.084 0,0 c -0.002,-0.009 -0.093,0.011 -0.269,0.057 -0.205,0.057 -0.461,0.129 -0.78,0.218 -0.345,0.09 -0.766,0.22 -1.242,0.434 -0.482,0.198 -1.046,0.413 -1.631,0.757 -1.214,0.604 -2.584,1.579 -3.96,2.93 -1.366,1.357 -2.699,3.16 -3.649,5.406 -0.939,2.236 -1.541,4.918 -1.328,7.788 0.224,2.846 1.096,5.906 2.965,8.558 0.893,1.347 2.035,2.575 3.353,3.634 0.64,0.557 1.374,1 2.095,1.475 0.764,0.402 1.524,0.833 2.353,1.135 3.258,1.347 7.071,1.596 10.694,0.687 3.605,-0.97 6.813,-3.045 9.002,-5.808 0.576,-0.667 1.03,-1.414 1.502,-2.136 0.398,-0.766 0.823,-1.511 1.111,-2.309 0.635,-1.566 1.035,-3.194 1.159,-4.805 0.34,-3.227 -0.387,-6.323 -1.577,-8.919 C 18.586,6.492 16.755,4.443 14.846,2.947 12.922,1.448 10.88,0.522 9.026,0.002 7.167,-0.509 5.495,-0.692 4.14,-0.63 3.461,-0.645 2.864,-0.558 2.347,-0.496 1.827,-0.451 1.395,-0.36 1.05,-0.271 0.728,-0.193 0.47,-0.131 0.263,-0.081 0.087,-0.036 -0.002,-0.009 0,0"
             style="fill:#e1e1e1;fill-opacity:1;fill-rule:nonzero;stroke:none"
             id="path56" />
        </g>
        <g
           id="g58"
           transform="translate(190.8055,393.4713)">
          <path
             d="m 0,0 c -5.119,1.33 -8.189,6.558 -6.859,11.677 1.33,5.119 6.559,8.19 11.677,6.859 5.119,-1.33 8.19,-6.558 6.859,-11.677 C 10.347,1.74 5.119,-1.331 0,0"
             style="fill:#e1e1e1;fill-opacity:1;fill-rule:nonzero;stroke:none"
             id="path60" />
        </g>
        <g
           id="g62"
           transform="translate(190.8055,393.4713)">
          <path
             d="m 0,0 c 0.012,0.065 0.831,-0.199 2.339,-0.197 1.481,0.005 3.756,0.409 5.866,2.088 1.034,0.834 2.021,1.964 2.668,3.392 0.635,1.421 1.018,3.108 0.823,4.857 -0.072,0.874 -0.294,1.756 -0.642,2.603 -0.335,0.853 -0.814,1.672 -1.424,2.404 -1.19,1.493 -2.925,2.61 -4.876,3.137 -1.961,0.49 -4.021,0.36 -5.788,-0.365 C -1.923,17.578 -2.74,17.095 -3.449,16.513 -4.166,15.942 -4.789,15.28 -5.277,14.552 -6.3,13.119 -6.787,11.458 -6.924,9.908 -7.054,8.346 -6.743,6.878 -6.245,5.646 -5.219,3.153 -3.429,1.692 -2.139,0.967 -0.822,0.231 0.021,0.063 0,0 c 0,0 -0.86,0.093 -2.236,0.789 -1.347,0.685 -3.237,2.143 -4.349,4.715 -0.539,1.27 -0.887,2.798 -0.77,4.434 0.124,1.624 0.618,3.37 1.682,4.886 0.509,0.769 1.16,1.471 1.912,2.076 0.743,0.617 1.601,1.129 2.538,1.493 1.86,0.77 4.039,0.914 6.108,0.395 2.059,-0.554 3.892,-1.741 5.14,-3.319 0.641,-0.774 1.141,-1.64 1.49,-2.54 0.362,-0.895 0.589,-1.824 0.658,-2.744 C 12.365,8.343 11.946,6.577 11.264,5.1 10.569,3.613 9.522,2.448 8.432,1.601 6.209,-0.104 3.848,-0.457 2.338,-0.4 0.796,-0.338 0,0 0,0"
             style="fill:#e1e1e1;fill-opacity:1;fill-rule:nonzero;stroke:none"
             id="path64" />
        </g>
        <g
           id="g66"
           transform="translate(212.1442,389.5535)">
          <path
             d="m 0,0 6.928,12.056 c 2.031,3.535 6.544,4.754 10.079,2.723 l 0.648,-0.373 C 21.191,12.375 22.41,7.862 20.378,4.327 L 13.451,-7.729 c -2.032,-3.535 -6.545,-4.754 -10.08,-2.723 l -0.648,0.373 C -0.812,-8.048 -2.031,-3.535 0,0"
             style="fill:#ececec;fill-opacity:1;fill-rule:nonzero;stroke:none"
             id="path68" />
        </g>
        <g
           id="g70"
           transform="translate(212.1442,389.5536)">
          <path
             d="m 0,0 c 0.075,-0.026 -0.598,-0.925 -0.83,-2.816 -0.098,-0.937 -0.016,-2.116 0.445,-3.371 0.247,-0.619 0.582,-1.252 1.036,-1.855 0.467,-0.592 1.049,-1.147 1.745,-1.608 0.709,-0.442 1.486,-0.919 2.341,-1.198 0.862,-0.288 1.814,-0.422 2.79,-0.353 1.947,0.128 3.981,1.147 5.278,2.925 2.297,3.835 4.732,8.223 7.347,12.731 1.264,2.195 1.234,4.973 0.033,7.036 -0.568,1.047 -1.412,1.906 -2.376,2.521 -0.992,0.631 -1.988,1.172 -3.076,1.365 -2.155,0.439 -4.351,-0.17 -5.868,-1.398 C 7.298,12.782 6.601,10.955 5.681,9.517 3.966,6.602 2.568,4.226 1.569,2.527 1.094,1.742 0.715,1.114 0.428,0.64 0.163,0.212 0.016,-0.009 0,0 c -0.016,0.009 0.101,0.247 0.337,0.693 0.266,0.486 0.617,1.13 1.056,1.935 0.965,1.719 2.314,4.123 3.969,7.073 0.422,0.746 0.864,1.526 1.324,2.338 0.468,0.828 1.1,1.631 1.91,2.278 1.597,1.317 3.927,1.986 6.232,1.53 1.159,-0.198 2.247,-0.782 3.248,-1.416 1.033,-0.653 1.941,-1.571 2.554,-2.69 C 21.922,9.535 21.962,6.55 20.603,4.196 17.976,-0.332 15.57,-4.649 13.192,-8.56 c -1.396,-1.891 -3.572,-2.956 -5.636,-3.072 -1.035,-0.063 -2.042,0.089 -2.949,0.403 -0.921,0.319 -1.683,0.802 -2.416,1.273 -0.724,0.494 -1.326,1.086 -1.804,1.713 -0.465,0.639 -0.802,1.306 -1.045,1.955 -0.453,1.315 -0.505,2.537 -0.373,3.496 0.13,0.966 0.435,1.665 0.635,2.128 C -0.152,-0.218 -0.015,0.009 0,0"
             style="fill:#e1e1e1;fill-opacity:1;fill-rule:nonzero;stroke:none"
             id="path72" />
        </g>
        <g
           id="g74"
           transform="translate(191.4708,362.4615)">
          <path
             d="m 0,0 c 0,0 20.29,-57.62 28.325,-69.878 8.036,-12.259 44.694,-43.847 50.316,-42.18 5.622,1.668 6.61,3.49 2.548,10.048 -4.063,6.558 -28.979,29.691 -32.677,35.416 -3.698,5.725 -29.809,73.602 -29.809,73.602 z"
             style="fill:#e1e1e1;fill-opacity:1;fill-rule:nonzero;stroke:none"
             id="path76" />
        </g>
        <g
           id="g78"
           transform="translate(202.9929,378.1706)">
          <path
             d="m 0,0 -13.022,-4.875 c -3.818,-1.429 -5.755,-5.684 -4.326,-9.502 l 0.262,-0.7 c 1.43,-3.819 5.684,-5.756 9.503,-4.326 l 13.022,4.875 c 3.818,1.429 5.755,5.683 4.326,9.502 l -0.263,0.7 C 8.073,-0.507 3.819,1.43 0,0"
             style="fill:#ececec;fill-opacity:1;fill-rule:nonzero;stroke:none"
             id="path80" />
        </g>
        <g
           id="g82"
           transform="translate(202.9929,378.1706)">
          <path
             d="m 0,0 c -0.006,0.016 0.24,0.115 0.72,0.282 0.489,0.123 1.228,0.31 2.203,0.281 0.968,-0.026 2.165,-0.275 3.388,-0.936 0.601,-0.346 1.204,-0.786 1.759,-1.349 0.541,-0.574 1.027,-1.264 1.397,-2.059 0.345,-0.799 0.699,-1.63 0.863,-2.591 0.162,-0.946 0.149,-1.964 -0.082,-2.975 -0.45,-2.018 -1.854,-3.992 -3.947,-5.062 -4.246,-1.71 -8.896,-3.381 -13.791,-5.237 -2.544,-0.958 -5.483,-0.434 -7.449,1.199 -1.005,0.788 -1.763,1.833 -2.24,2.959 -0.462,1.09 -0.862,2.259 -0.868,3.435 -0.076,2.348 0.964,4.538 2.523,5.9 0.77,0.693 1.665,1.187 2.558,1.514 0.876,0.321 1.718,0.631 2.523,0.926 3.179,1.154 5.77,2.093 7.623,2.766 0.866,0.302 1.559,0.544 2.082,0.727 C -0.26,-0.059 -0.006,0.017 0,0 c 0.006,-0.017 -0.235,-0.126 -0.701,-0.319 -0.515,-0.205 -1.196,-0.477 -2.048,-0.818 -1.838,-0.71 -4.41,-1.703 -7.565,-2.921 -1.569,-0.674 -3.485,-1.064 -4.92,-2.416 -1.459,-1.297 -2.417,-3.365 -2.334,-5.563 0.014,-1.104 0.385,-2.175 0.847,-3.256 0.45,-1.051 1.16,-2.023 2.1,-2.755 1.841,-1.52 4.577,-2.001 6.948,-1.111 4.873,1.847 9.599,3.536 13.757,5.179 1.965,0.99 3.301,2.831 3.744,4.732 0.226,0.951 0.249,1.913 0.105,2.81 -0.136,0.889 -0.48,1.734 -0.801,2.504 C 8.79,-3.172 8.337,-2.508 7.83,-1.95 7.308,-1.404 6.738,-0.971 6.167,-0.626 5.004,0.032 3.854,0.305 2.914,0.361 1.01,0.439 0.014,-0.078 0,0"
             style="fill:#e1e1e1;fill-opacity:1;fill-rule:nonzero;stroke:none"
             id="path84" />
        </g>
      </g>
    </g>
    <g
       id="g86">
      <g
         id="g88"
         clip-path="url(#clipPath92)">
        <g
           id="g94"
           transform="translate(38.8918,330.7189)">
          <path
             d="m 0,0 0.969,-1.915 c 8.169,-16.142 24.371,-26.743 42.296,-26.99 2.305,-0.032 4.612,0.103 6.902,0.411 16.486,2.221 31.544,13.398 38.604,28.654 4.153,8.973 5.934,19.535 13.028,26.364 9.232,8.888 23.68,8.076 36.331,6.703 12.652,-1.374 27.112,-2.149 36.305,6.779 5.758,5.592 8.099,13.995 8.292,22.063 0.509,21.362 -12.848,41.527 -30.972,52.436 C 133.632,125.413 111.5,127.972 90.546,125.403 61.193,121.805 32.471,107.924 14.043,84.483 -4.385,61.043 -11.163,27.694 0,0"
             style="fill:#f5f5f5;fill-opacity:1;fill-rule:nonzero;stroke:none"
             id="path96" />
        </g>
        <g
           id="g98"
           transform="translate(535.9808,427.993)">
          <path
             d="m 0,0 -1.126,-1.827 c -9.497,-15.398 -10.071,-34.752 -0.917,-50.166 1.177,-1.981 2.496,-3.878 3.956,-5.669 10.507,-12.897 27.904,-19.898 44.601,-17.948 9.82,1.147 19.757,5.146 29.286,2.666 12.402,-3.229 19.257,-15.973 24.696,-27.478 5.438,-11.505 12.332,-24.24 24.748,-27.415 7.776,-1.988 16.164,0.406 23.144,4.457 18.481,10.725 28.697,32.65 28.53,53.803 -0.167,21.153 -9.548,41.36 -22.684,57.885 C 135.83,11.458 108.988,28.696 79.373,32.163 49.759,35.63 17.782,23.987 0,0"
             style="fill:#f5f5f5;fill-opacity:1;fill-rule:nonzero;stroke:none"
             id="path100" />
        </g>
        <g
           id="g102"
           transform="translate(318.3501,406.6064)">
          <path
             d="m 0,0 c 0,-18.599 -15.078,-33.677 -33.677,-33.677 -18.599,0 -33.676,15.078 -33.676,33.677 0,18.599 15.077,33.677 33.676,33.677 C -15.078,33.677 0,18.599 0,0"
             style="fill:#f5f5f5;fill-opacity:1;fill-rule:nonzero;stroke:none"
             id="path104" />
        </g>
      </g>
    </g>
    <g
       id="g106">
      <g
         id="g108"
         clip-path="url(#clipPath112)">
        <g
           id="g114"
           transform="translate(714.755,46.5301)">
          <path
             d="m 0,0 c 0,-0.144 -152.437,-0.26 -340.435,-0.26 -188.063,0 -340.467,0.116 -340.467,0.26 0,0.144 152.404,0.26 340.467,0.26 C -152.437,0.26 0,0.144 0,0"
             style="fill:#1a2e35;fill-opacity:1;fill-rule:nonzero;stroke:none"
             id="path116" />
        </g>
      </g>
    </g>
    <g
       id="g118">
      <g
         id="g120"
         clip-path="url(#clipPath124)">
        <g
           id="g126"
           transform="translate(87.0154,160.933)">
          <path
             d="m 0,0 c 0.277,0.838 31.435,102.695 31.435,102.695 l -0.78,12.649 8.149,13.418 L 48.926,125.42 47.541,110.378 40.347,99.442 8.96,-2.895 Z"
             style="fill:#e1e1e1;fill-opacity:1;fill-rule:nonzero;stroke:none"
             id="path128" />
        </g>
        <g
           id="g130"
           transform="translate(87.0154,160.933)">
          <path
             d="m 0,0 c 0,0 0.21,-0.056 0.601,-0.176 0.404,-0.125 0.979,-0.303 1.731,-0.536 1.525,-0.48 3.757,-1.183 6.656,-2.096 l -0.115,-0.06 c 5.069,16.618 16.793,55.055 31.23,102.384 l 0.011,0.035 0.02,0.031 c 2.278,3.466 4.717,7.176 7.191,10.938 l -0.042,-0.118 c 0.442,4.798 0.91,9.888 1.384,15.042 l 0.177,-0.271 c -0.263,0.087 -0.55,0.181 -0.836,0.276 -3.122,1.031 -6.219,2.054 -9.285,3.067 l 0.303,0.112 c -2.77,-4.559 -5.493,-9.041 -8.151,-13.417 l 0.036,0.149 c 0.264,-4.313 0.523,-8.534 0.775,-12.65 l 0.002,-0.045 -0.013,-0.044 C 22.568,73.03 14.681,47.401 9.065,29.154 6.241,20.03 3.989,12.755 2.438,7.743 1.66,5.249 1.058,3.322 0.646,2 0.441,1.355 0.284,0.861 0.174,0.512 0.065,0.176 0,0 0,0 c 0,0 0.039,0.163 0.134,0.492 0.101,0.345 0.245,0.833 0.433,1.469 0.394,1.315 0.97,3.232 1.714,5.713 1.516,5.009 3.717,12.28 6.476,21.398 5.573,18.304 13.4,44.013 22.438,73.696 l -0.011,-0.089 c -0.255,4.116 -0.517,8.336 -0.785,12.649 l -0.004,0.08 0.041,0.069 c 2.657,4.377 5.378,8.86 8.146,13.42 l 0.107,0.177 0.197,-0.065 c 3.066,-1.012 6.163,-2.035 9.285,-3.066 0.287,-0.094 0.573,-0.189 0.837,-0.276 l 0.196,-0.065 -0.019,-0.206 c -0.475,-5.154 -0.944,-10.243 -1.386,-15.041 l -0.006,-0.065 -0.036,-0.054 c -2.475,-3.761 -4.917,-7.47 -7.197,-10.934 l 0.031,0.065 C 26.01,52.082 14.168,13.681 9.048,-2.922 L 9.02,-3.012 8.932,-2.982 C 6.025,-2.019 3.787,-1.277 2.257,-0.771 1.519,-0.522 0.956,-0.333 0.56,-0.199 0.181,-0.071 0,0 0,0"
             style="fill:#1a2e35;fill-opacity:1;fill-rule:nonzero;stroke:none"
             id="path132" />
        </g>
        <g
           id="g134"
           transform="translate(79.4942,155.9816)">
          <path
             d="m 0,0 -13.994,-18.923 -19.57,-70.987 c 0,0 -2.814,-14.479 13.181,-18.593 17.96,-4.62 22.103,9.138 22.103,9.138 l 19.028,69.33 -0.285,24.06 4.697,5.289 c 0.945,1.064 0.492,2.748 -0.859,3.194 L 1.83,9.929 C 0.472,10.377 -0.899,9.282 -0.761,7.858 Z"
             style="fill:#ff735d;fill-opacity:1;fill-rule:nonzero;stroke:none"
             id="path136" />
        </g>
        <g
           id="g138"
           transform="translate(100.116,149.1694)">
          <path
             d="m 0,0 c -0.043,-0.137 -4.753,1.235 -10.518,3.065 -5.768,1.83 -10.406,3.424 -10.363,3.561 0.044,0.138 4.753,-1.235 10.52,-3.065 C -4.596,1.732 0.044,0.137 0,0"
             style="fill:#1a2e35;fill-opacity:1;fill-rule:nonzero;stroke:none"
             id="path140" />
        </g>
        <g
           id="g142"
           transform="translate(100.2423,125.9463)">
          <path
             d="m 0,0 c -0.009,-0.035 -0.507,0.055 -1.402,0.247 -0.896,0.191 -2.185,0.495 -3.772,0.894 -3.174,0.798 -7.534,2.005 -12.292,3.523 -4.76,1.521 -9.013,3.064 -12.062,4.254 -1.525,0.594 -2.751,1.093 -3.591,1.457 -0.841,0.361 -1.3,0.577 -1.286,0.611 0.013,0.033 0.496,-0.119 1.359,-0.423 0.955,-0.34 2.179,-0.777 3.647,-1.3 3.077,-1.1 7.341,-2.585 12.091,-4.103 4.749,-1.515 9.084,-2.776 12.229,-3.663 1.5,-0.424 2.751,-0.778 3.726,-1.053 C -0.474,0.191 0.008,0.035 0,0"
             style="fill:#1a2e35;fill-opacity:1;fill-rule:nonzero;stroke:none"
             id="path144" />
        </g>
        <g
           id="g146">
          <g
             id="g148" />
          <g
             id="g160">
            <g
               clip-path="url(#clipPath152)"
               opacity="0.300003"
               id="g158">
              <g
                 transform="translate(52.9717,64.058)"
                 id="g156">
                <path
                   d="M 0,0 -0.48,0.142 C -2.229,0.66 -3.228,2.498 -2.71,4.247 l 17.569,59.339 c 0.518,1.749 2.356,2.747 4.105,2.229 l 0.48,-0.142 c 1.749,-0.518 2.748,-2.356 2.23,-4.105 L 4.105,2.229 C 3.587,0.48 1.749,-0.518 0,0"
                   style="fill:#000000;fill-opacity:1;fill-rule:nonzero;stroke:none"
                   id="path154" />
              </g>
            </g>
          </g>
        </g>
        <g
           id="g162">
          <g
             id="g164" />
          <g
             id="g176">
            <g
               clip-path="url(#clipPath168)"
               opacity="0.300003"
               id="g174">
              <g
                 transform="translate(62.9474,60.7733)"
                 id="g172">
                <path
                   d="M 0,0 -0.48,0.142 C -2.229,0.66 -3.228,2.498 -2.71,4.247 l 17.569,59.339 c 0.518,1.749 2.356,2.747 4.105,2.229 l 0.48,-0.142 c 1.749,-0.518 2.748,-2.356 2.23,-4.105 L 4.105,2.23 C 3.587,0.48 1.749,-0.518 0,0"
                   style="fill:#000000;fill-opacity:1;fill-rule:nonzero;stroke:none"
                   id="path170" />
              </g>
            </g>
          </g>
        </g>
        <g
           id="g178">
          <g
             id="g180" />
          <g
             id="g192">
            <g
               clip-path="url(#clipPath184)"
               opacity="0.300003"
               id="g190">
              <g
                 transform="translate(73.5365,57.6381)"
                 id="g188">
                <path
                   d="M 0,0 -0.48,0.142 C -2.229,0.66 -3.228,2.498 -2.71,4.247 l 17.569,59.339 c 0.518,1.749 2.356,2.747 4.105,2.229 l 0.48,-0.142 c 1.749,-0.518 2.747,-2.356 2.23,-4.105 L 4.105,2.229 C 3.587,0.48 1.749,-0.518 0,0"
                   style="fill:#000000;fill-opacity:1;fill-rule:nonzero;stroke:none"
                   id="path186" />
              </g>
            </g>
          </g>
        </g>
        <g
           id="g194"
           transform="translate(127.2664,260.4037)">
          <path
             d="M 0,0 C -0.047,-0.136 -2.041,0.43 -4.454,1.265 -6.867,2.099 -8.785,2.886 -8.738,3.022 -8.691,3.158 -6.697,2.591 -4.284,1.757 -1.871,0.923 0.047,0.136 0,0"
             style="fill:#1a2e35;fill-opacity:1;fill-rule:nonzero;stroke:none"
             id="path196" />
        </g>
        <g
           id="g198"
           transform="translate(135.9416,286.3529)">
          <path
             d="m 0,0 c 0.03,-0.009 -0.096,-0.504 -0.352,-1.402 -0.289,-0.972 -0.67,-2.257 -1.136,-3.825 -1.031,-3.319 -2.431,-7.826 -4.026,-12.958 l -0.078,-0.251 -0.249,0.087 c -1.486,0.518 -3.027,1.055 -4.606,1.605 -1.631,0.572 -3.22,1.13 -4.746,1.665 l -0.226,0.08 0.065,0.228 c 1.446,5.14 2.715,9.647 3.649,12.965 0.459,1.556 0.835,2.83 1.119,3.793 0.272,0.885 0.434,1.364 0.464,1.356 0.03,-0.009 -0.074,-0.503 -0.292,-1.403 -0.248,-0.974 -0.574,-2.261 -0.973,-3.833 -0.89,-3.33 -2.098,-7.854 -3.476,-13.012 l -0.162,0.307 c 1.527,-0.532 3.118,-1.086 4.749,-1.654 1.578,-0.554 3.118,-1.094 4.603,-1.615 L -6,-18.031 c 1.662,5.111 3.122,9.599 4.197,12.904 0.525,1.55 0.955,2.819 1.281,3.779 C -0.213,-0.467 -0.03,0.009 0,0"
             style="fill:#1a2e35;fill-opacity:1;fill-rule:nonzero;stroke:none"
             id="path200" />
        </g>
      </g>
    </g>
    <g
       id="g202">
      <g
         id="g204"
         clip-path="url(#clipPath208)">
        <g
           id="g210"
           transform="translate(419.3041,400.1395)">
          <path
             d="m 0,0 11.441,-3.964 9.154,7.925 -2.287,11.89 -11.442,3.965 -9.153,-7.926 z m 11.594,-12.061 c -0.797,0 -1.598,0.13 -2.37,0.398 L -3.021,-7.42 c -2.443,0.847 -4.265,2.95 -4.754,5.49 l -2.448,12.726 c -0.49,2.54 0.422,5.171 2.379,6.864 l 9.796,8.483 c 1.955,1.691 4.691,2.218 7.132,1.371 l 12.244,-4.243 c 2.445,-0.847 4.268,-2.952 4.756,-5.493 L 28.531,5.055 c 0.489,-2.542 -0.424,-5.172 -2.38,-6.864 l -9.795,-8.482 c -1.336,-1.158 -3.039,-1.77 -4.762,-1.77"
             style="fill:#e1e1e1;fill-opacity:1;fill-rule:nonzero;stroke:none"
             id="path212" />
        </g>
        <g
           id="g214"
           transform="translate(419.3041,400.1395)">
          <path
             d="m 0,0 c -0.014,-0.013 -0.083,0.26 -0.203,0.791 -0.125,0.588 -0.293,1.368 -0.502,2.345 -0.431,2.119 -1.033,5.084 -1.772,8.717 -0.014,0.07 0.014,0.14 0.063,0.183 2.602,2.273 5.705,4.983 9.119,7.965 0.069,0.06 0.162,0.074 0.242,0.047 3.541,-1.223 7.411,-2.558 11.444,-3.95 -0.151,0.175 0.21,-0.24 0.173,-0.199 v -0.003 l 0.001,-0.006 0.003,-0.012 0.004,-0.025 0.01,-0.049 0.019,-0.097 0.037,-0.196 0.075,-0.39 0.15,-0.778 c 0.099,-0.516 0.197,-1.03 0.295,-1.541 0.196,-1.022 0.389,-2.03 0.579,-3.025 C 20.116,7.79 20.483,5.861 20.836,4.008 20.853,3.919 20.819,3.831 20.755,3.776 17.315,0.822 14.205,-1.847 11.568,-4.111 11.515,-4.158 11.44,-4.168 11.378,-4.147 7.887,-2.896 5.038,-1.875 3.003,-1.146 2.066,-0.799 1.317,-0.522 0.754,-0.314 0.245,-0.12 -0.014,-0.013 0,0 c 0.015,0.013 0.303,-0.07 0.836,-0.237 0.578,-0.187 1.347,-0.436 2.309,-0.747 2.031,-0.68 4.875,-1.631 8.36,-2.797 l -0.19,-0.037 c 2.617,2.286 5.704,4.982 9.119,7.965 l -0.08,-0.232 c -0.36,1.852 -0.735,3.779 -1.121,5.765 -0.192,0.994 -0.387,2.003 -0.584,3.024 -0.099,0.511 -0.198,1.024 -0.297,1.541 l -0.15,0.777 -0.075,0.391 -0.038,0.195 -0.019,0.098 -0.009,0.049 -0.005,0.024 -0.002,0.013 -10e-4,0.006 -0.001,0.003 c -0.037,0.044 0.322,-0.372 0.168,-0.195 -4.029,1.402 -7.895,2.747 -11.434,3.978 L 7.027,19.63 C 3.587,16.677 0.461,13.994 -2.16,11.744 l 0.063,0.183 C -1.441,8.311 -0.906,5.361 -0.524,3.254 -0.354,2.257 -0.218,1.461 -0.115,0.862 -0.026,0.31 0.015,0.013 0,0"
             style="fill:#1a2e35;fill-opacity:1;fill-rule:nonzero;stroke:none"
             id="path216" />
        </g>
        <g
           id="g218"
           transform="translate(430.8978,388.0784)">
          <path
             d="m 0,0 c -0.001,0.027 0.435,0.01 1.238,0.16 0.792,0.155 1.985,0.511 3.198,1.473 2.374,2.079 5.764,5.048 9.942,8.707 1.038,0.883 1.85,2.124 2.239,3.556 0.188,0.716 0.271,1.475 0.231,2.243 -0.047,0.76 -0.25,1.547 -0.396,2.356 -0.627,3.223 -1.297,6.664 -2.002,10.284 -0.176,0.916 -0.32,1.81 -0.727,2.634 -0.383,0.828 -0.938,1.588 -1.625,2.219 -0.687,0.632 -1.509,1.127 -2.405,1.446 -0.931,0.322 -1.871,0.647 -2.819,0.975 -1.897,0.657 -3.828,1.324 -5.788,2.002 -0.98,0.339 -1.966,0.681 -2.96,1.025 -0.997,0.377 -1.959,0.637 -3.002,0.632 -1.027,-0.006 -2.048,-0.226 -2.967,-0.656 -0.938,-0.411 -1.685,-1.086 -2.473,-1.779 -1.569,-1.357 -3.115,-2.694 -4.634,-4.007 -1.516,-1.313 -3.005,-2.603 -4.464,-3.866 -1.386,-1.255 -2.194,-3.046 -2.28,-4.827 -0.068,-0.896 0.124,-1.757 0.296,-2.65 0.167,-0.883 0.333,-1.754 0.496,-2.613 0.326,-1.717 0.642,-3.385 0.948,-4.998 0.313,-1.603 0.582,-3.188 0.899,-4.647 0.386,-1.431 1.201,-2.675 2.238,-3.554 0.516,-0.443 1.083,-0.801 1.671,-1.07 0.585,-0.262 1.215,-0.454 1.803,-0.669 1.184,-0.418 2.302,-0.812 3.348,-1.182 2.081,-0.739 3.878,-1.377 5.36,-1.903 C -3.159,0.785 -2.042,0.296 -1.238,0.16 -0.435,0.009 0.001,0.026 0,0 c 0,0 -0.435,-0.063 -1.256,0.056 -0.83,0.108 -1.963,0.568 -3.446,1.043 -1.49,0.503 -3.296,1.114 -5.388,1.82 -1.051,0.358 -2.173,0.74 -3.362,1.144 -0.594,0.211 -1.208,0.389 -1.838,0.662 -0.62,0.277 -1.219,0.648 -1.766,1.109 -1.098,0.916 -1.969,2.219 -2.387,3.73 -0.34,1.515 -0.61,3.056 -0.935,4.671 -0.314,1.611 -0.639,3.277 -0.974,4.992 -0.166,0.858 -0.336,1.729 -0.507,2.611 -0.171,0.867 -0.383,1.807 -0.315,2.763 0.086,1.903 0.943,3.821 2.424,5.17 1.46,1.269 2.949,2.565 4.466,3.884 1.517,1.316 3.062,2.655 4.628,4.013 0.399,0.34 0.769,0.682 1.203,1.021 0.431,0.326 0.898,0.608 1.391,0.839 0.988,0.462 2.083,0.699 3.186,0.705 1.097,0.015 2.209,-0.293 3.173,-0.662 0.993,-0.344 1.979,-0.687 2.959,-1.027 1.958,-0.68 3.888,-1.35 5.785,-2.009 0.948,-0.33 1.889,-0.657 2.82,-0.981 0.96,-0.344 1.84,-0.878 2.573,-1.556 0.734,-0.677 1.325,-1.492 1.733,-2.379 0.432,-0.883 0.587,-1.858 0.754,-2.749 0.688,-3.624 1.343,-7.068 1.956,-10.294 0.139,-0.805 0.34,-1.589 0.387,-2.414 0.038,-0.813 -0.055,-1.616 -0.259,-2.371 -0.42,-1.509 -1.292,-2.815 -2.386,-3.73 C 10.392,6.452 6.963,3.524 4.561,1.473 3.294,0.509 2.065,0.18 1.256,0.056 0.435,-0.062 0,0 0,0"
             style="fill:#1a2e35;fill-opacity:1;fill-rule:nonzero;stroke:none"
             id="path220" />
        </g>
        <g
           id="g222"
           transform="translate(349.7108,425.827)">
          <path
             d="m 0,0 c -0.063,0 -0.126,-0.005 -0.19,-0.015 l -5.517,-0.846 c -0.446,-0.068 -0.824,-0.371 -0.987,-0.79 L -8.72,-6.853 c -0.163,-0.419 -0.09,-0.898 0.192,-1.25 l 3.491,-4.355 c 0.282,-0.351 0.734,-0.526 1.178,-0.459 l 5.518,0.847 c 0.445,0.067 0.822,0.37 0.986,0.79 l 2.026,5.202 C 4.835,-5.659 4.76,-5.18 4.479,-4.829 L 0.988,-0.473 C 0.747,-0.172 0.38,0 0,0 m -4.045,-16.931 c -1.583,0 -3.107,0.717 -4.113,1.971 l -3.491,4.356 c -1.173,1.462 -1.479,3.457 -0.798,5.203 l 2.026,5.202 c 0.68,1.746 2.254,3.008 4.107,3.292 l 5.518,0.846 C 1.058,4.222 2.936,3.491 4.109,2.029 L 7.6,-2.327 c 1.172,-1.462 1.479,-3.456 0.799,-5.202 l -2.027,-5.203 c -0.68,-1.747 -2.253,-3.008 -4.107,-3.293 l -5.518,-0.846 c -0.264,-0.04 -0.529,-0.06 -0.792,-0.06"
             style="fill:#e1e1e1;fill-opacity:1;fill-rule:nonzero;stroke:none"
             id="path224" />
        </g>
        <g
           id="g226"
           transform="translate(349.7108,425.8269)">
          <path
             d="M 0,0 C -0.002,0.012 0.15,0.053 0.43,-0.02 0.568,-0.06 0.737,-0.132 0.902,-0.27 1.07,-0.415 1.201,-0.6 1.377,-0.797 2.106,-1.672 3.063,-2.821 4.218,-4.209 4.369,-4.394 4.523,-4.583 4.68,-4.775 4.846,-5.004 4.946,-5.289 4.957,-5.585 4.978,-5.884 4.853,-6.19 4.763,-6.418 4.668,-6.667 4.572,-6.92 4.475,-7.178 4.08,-8.212 3.66,-9.311 3.22,-10.465 3.109,-10.754 2.996,-11.047 2.883,-11.343 2.757,-11.69 2.485,-12.006 2.137,-12.176 1.76,-12.357 1.426,-12.342 1.109,-12.41 c -0.328,-0.051 -0.658,-0.103 -0.991,-0.155 -1.35,-0.202 -2.671,-0.433 -4.166,-0.626 -0.432,-10e-4 -0.856,0.188 -1.139,0.509 -0.224,0.279 -0.447,0.556 -0.668,0.831 -0.434,0.544 -0.863,1.08 -1.284,1.608 -0.42,0.527 -0.832,1.045 -1.237,1.553 l -0.301,0.378 c -0.106,0.126 -0.221,0.306 -0.281,0.48 -0.131,0.354 -0.114,0.758 0.024,1.09 0.456,1.148 0.89,2.241 1.299,3.271 0.205,0.51 0.402,1.004 0.593,1.481 0.102,0.228 0.163,0.478 0.338,0.722 0.165,0.23 0.394,0.401 0.644,0.499 1.923,0.352 3.378,0.488 4.434,0.637 C -0.588,-0.003 -0.003,0.051 0,0 -0.002,-0.021 -0.139,-0.037 -0.41,-0.101 -0.742,-0.166 -1.132,-0.242 -1.595,-0.333 -2.605,-0.532 -4.171,-0.758 -5.921,-1.11 -6.105,-1.188 -6.273,-1.32 -6.39,-1.492 c -0.115,-0.157 -0.18,-0.404 -0.278,-0.644 -0.181,-0.481 -0.37,-0.978 -0.564,-1.492 -0.395,-1.035 -0.815,-2.134 -1.255,-3.288 -0.097,-0.241 -0.101,-0.506 -0.011,-0.748 0.072,-0.226 0.311,-0.45 0.51,-0.715 0.408,-0.505 0.824,-1.021 1.247,-1.545 0.423,-0.526 0.854,-1.06 1.29,-1.603 0.216,-0.267 0.433,-0.537 0.652,-0.808 0.185,-0.211 0.467,-0.336 0.751,-0.335 1.4,0.209 2.767,0.413 4.089,0.61 0.334,0.05 0.664,0.1 0.991,0.149 0.328,0.061 0.674,0.068 0.884,0.181 0.236,0.116 0.417,0.315 0.511,0.564 0.116,0.295 0.232,0.587 0.346,0.875 0.456,1.148 0.89,2.241 1.299,3.27 0.102,0.255 0.203,0.507 0.302,0.754 0.108,0.262 0.19,0.451 0.181,0.672 -0.004,0.215 -0.071,0.426 -0.19,0.597 -0.147,0.19 -0.292,0.376 -0.434,0.559 -1.103,1.43 -2.016,2.614 -2.712,3.516 C 0.679,0.031 -0.026,-0.047 0,0"
             style="fill:#1a2e35;fill-opacity:1;fill-rule:nonzero;stroke:none"
             id="path228" />
        </g>
        <g
           id="g230"
           transform="translate(345.6659,408.8963)">
          <path
             d="m 0,0 c 0,0.018 0.232,0.053 0.667,0.103 0.489,0.085 1.123,0.196 1.91,0.333 0.85,0.143 1.862,0.313 3.026,0.509 0.595,0.101 1.216,0.173 1.82,0.442 0.607,0.248 1.197,0.64 1.705,1.159 0.507,0.525 0.917,1.17 1.182,1.934 0.295,0.768 0.6,1.567 0.917,2.392 0.544,1.673 1.663,3.381 1.257,5.294 -0.165,0.945 -0.601,1.824 -1.284,2.596 -0.654,0.812 -1.321,1.64 -1.999,2.484 -0.34,0.422 -0.682,0.848 -1.027,1.277 C 7.833,18.964 7.49,19.338 7.057,19.661 6.208,20.301 5.134,20.669 4.042,20.667 3.504,20.678 2.95,20.551 2.382,20.474 1.821,20.388 1.264,20.303 0.711,20.219 -0.389,20.048 -1.473,19.879 -2.538,19.714 -3.544,19.492 -4.463,18.964 -5.139,18.236 -5.478,17.873 -5.76,17.465 -5.976,17.03 -6.183,16.603 -6.354,16.107 -6.54,15.651 -6.904,14.725 -7.26,13.822 -7.606,12.944 -7.931,12.056 -8.357,11.231 -8.482,10.4 -8.767,8.695 -8.113,7.106 -7.116,6.011 -6.191,4.834 -5.35,3.765 -4.604,2.817 -4.227,2.35 -3.914,1.889 -3.553,1.547 -3.195,1.198 -2.822,0.926 -2.461,0.725 -0.988,-0.066 0.021,0.075 0,0 c 0,-0.009 -0.058,-0.016 -0.173,-0.022 -0.114,-0.007 -0.285,-0.004 -0.508,0.015 -0.443,0.042 -1.11,0.159 -1.876,0.554 -0.382,0.195 -0.782,0.465 -1.167,0.821 -0.395,0.355 -0.723,0.813 -1.108,1.267 -0.763,0.934 -1.624,1.987 -2.571,3.146 -1.038,1.094 -1.807,2.845 -1.505,4.686 0.136,0.932 0.564,1.762 0.875,2.643 0.34,0.881 0.688,1.787 1.046,2.715 0.188,0.467 0.339,0.928 0.572,1.421 0.235,0.479 0.542,0.929 0.913,1.329 0.739,0.803 1.746,1.39 2.855,1.637 1.098,0.194 2.168,0.342 3.28,0.519 0.553,0.085 1.11,0.171 1.67,0.257 0.555,0.075 1.124,0.208 1.739,0.2 1.207,0.002 2.39,-0.405 3.326,-1.112 0.468,-0.345 0.878,-0.8 1.208,-1.231 0.344,-0.43 0.685,-0.857 1.023,-1.28 0.675,-0.846 1.339,-1.678 1.989,-2.492 0.698,-0.791 1.206,-1.803 1.369,-2.826 0.179,-1.025 0.048,-2.072 -0.32,-2.98 C 12.291,8.391 11.955,7.539 11.629,6.715 11.303,5.894 10.988,5.099 10.685,4.334 10.401,3.546 9.94,2.834 9.39,2.288 8.29,1.158 6.82,0.752 5.647,0.657 4.478,0.495 3.462,0.354 2.607,0.236 1.772,0.128 1.126,0.032 0.681,-0.001 0.232,-0.018 0,-0.018 0,0"
             style="fill:#1a2e35;fill-opacity:1;fill-rule:nonzero;stroke:none"
             id="path232" />
        </g>
        <g
           id="g234"
           transform="translate(443.0878,421.9506)">
          <path
             d="m 0,0 c 0.103,-0.09 -1.011,-1.592 -2.575,-3.296 -1.566,-1.707 -3.056,-2.868 -3.148,-2.76 -0.096,0.11 1.217,1.425 2.766,3.114 C -1.407,-1.253 -0.114,0.1 0,0"
             style="fill:#1a2e35;fill-opacity:1;fill-rule:nonzero;stroke:none"
             id="path236" />
        </g>
        <g
           id="g238"
           transform="translate(424.3362,427.7006)">
          <path
             d="M 0,0 C 0.132,0.046 0.821,-1.623 1.338,-3.782 1.86,-5.941 2.006,-7.74 1.867,-7.76 1.721,-7.781 1.348,-6.037 0.832,-3.904 0.321,-1.771 -0.14,-0.047 0,0"
             style="fill:#1a2e35;fill-opacity:1;fill-rule:nonzero;stroke:none"
             id="path240" />
        </g>
        <g
           id="g242"
           transform="translate(416.8816,412.2305)">
          <path
             d="M 0,0 C -0.058,-0.137 -1.744,0.456 -3.844,1.102 -5.943,1.755 -7.669,2.219 -7.639,2.365 -7.613,2.501 -5.817,2.261 -3.69,1.6 -1.562,0.944 0.056,0.128 0,0"
             style="fill:#1a2e35;fill-opacity:1;fill-rule:nonzero;stroke:none"
             id="path244" />
        </g>
        <g
           id="g246"
           transform="translate(414.7456,394.8827)">
          <path
             d="M 0,0 C -0.11,0.092 0.805,1.37 2.045,2.854 3.285,4.338 4.379,5.466 4.489,5.374 4.6,5.281 3.684,4.004 2.444,2.52 1.205,1.036 0.11,-0.092 0,0"
             style="fill:#1a2e35;fill-opacity:1;fill-rule:nonzero;stroke:none"
             id="path248" />
        </g>
        <g
           id="g250"
           transform="translate(431.5898,389.4051)">
          <path
             d="M 0,0 C -0.142,-0.022 -0.457,1.422 -0.704,3.225 -0.951,5.029 -1.035,6.504 -0.892,6.521 -0.749,6.538 -0.434,5.094 -0.188,3.296 0.058,1.498 0.142,0.022 0,0"
             style="fill:#1a2e35;fill-opacity:1;fill-rule:nonzero;stroke:none"
             id="path252" />
        </g>
        <g
           id="g254"
           transform="translate(445.8165,402.2205)">
          <path
             d="M 0,0 C -0.052,-0.134 -1.373,0.249 -2.95,0.855 -4.528,1.461 -5.765,2.062 -5.714,2.196 -5.662,2.33 -4.341,1.948 -2.763,1.341 -1.186,0.735 0.052,0.134 0,0"
             style="fill:#1a2e35;fill-opacity:1;fill-rule:nonzero;stroke:none"
             id="path256" />
        </g>
      </g>
    </g>
    <g
       id="g258">
      <g
         id="g260"
         clip-path="url(#clipPath264)">
        <g
           id="g266"
           transform="translate(644.3366,325.543)">
          <path
             d="m 0,0 c 6.778,8.154 13.546,16.394 18.82,25.593 5.274,9.199 9.029,19.483 9.277,30.083 0.037,1.607 -0.656,12.765 -2.201,13.21 -1.104,0.319 -1.862,-9.53 -2.767,-10.238 C 14.496,51.889 8.884,41.858 5.657,31.38 2.43,20.901 0.903,10.927 0,0"
             style="fill:#1a2e35;fill-opacity:1;fill-rule:nonzero;stroke:none"
             id="path268" />
        </g>
        <g
           id="g270"
           transform="translate(556.1532,263.5188)">
          <path
             d="m 0,0 c 2.7,6.986 15.985,41.96 15.932,41.981 0,0 -22.911,11.925 -15.046,36.202 3.8,11.726 13.589,35.239 22.695,56.414 9.787,22.76 35.417,34.176 58.889,26.25 l 2.332,-0.787 c 24.656,-9.963 29.97,-36.47 19.328,-60.842 L 55.163,-14.281 12.227,-1.009 Z"
             style="fill:#ffc19d;fill-opacity:1;fill-rule:nonzero;stroke:none"
             id="path272" />
        </g>
        <g
           id="g274"
           transform="translate(572.085,305.4994)">
          <path
             d="m 0,0 c 0,0 14.937,-6.04 34.62,-1.323 0,0 -13.622,-15.389 -37.011,-5.066 z"
             style="fill:#ff9c6a;fill-opacity:1;fill-rule:nonzero;stroke:none"
             id="path276" />
        </g>
        <g
           id="g278"
           transform="translate(579.7272,374.7698)">
          <path
             d="m 0,0 c -0.681,-1.801 0.284,-3.863 2.153,-4.608 1.865,-0.742 3.929,0.11 4.61,1.912 C 7.443,-0.895 6.479,1.168 4.614,1.912 2.747,2.657 0.68,1.801 0,0"
             style="fill:#1a2e35;fill-opacity:1;fill-rule:nonzero;stroke:none"
             id="path280" />
        </g>
        <g
           id="g282"
           transform="translate(581.5132,386.3369)">
          <path
             d="m 0,0 c 0.276,-0.595 3.545,0.458 7.257,-0.807 3.726,-1.209 5.808,-4.041 6.364,-3.722 0.266,0.134 0.105,1.095 -0.791,2.36 C 11.952,-0.914 10.242,0.596 7.924,1.368 5.605,2.136 3.371,1.942 1.957,1.448 0.519,0.956 -0.143,0.273 0,0"
             style="fill:#1a2e35;fill-opacity:1;fill-rule:nonzero;stroke:none"
             id="path284" />
        </g>
        <g
           id="g286"
           transform="translate(612.3203,361.6648)">
          <path
             d="m 0,0 c -0.68,-1.801 0.284,-3.863 2.153,-4.607 1.864,-0.744 3.929,0.108 4.61,1.911 C 7.442,-0.895 6.478,1.168 4.614,1.912 2.745,2.657 0.68,1.801 0,0"
             style="fill:#1a2e35;fill-opacity:1;fill-rule:nonzero;stroke:none"
             id="path288" />
        </g>
        <g
           id="g290"
           transform="translate(617.397,372.5453)">
          <path
             d="m 0,0 c 0.276,-0.595 3.549,0.456 7.258,-0.808 3.725,-1.21 5.807,-4.042 6.364,-3.723 0.265,0.135 0.108,1.093 -0.792,2.36 C 11.953,-0.916 10.242,0.594 7.924,1.367 5.606,2.135 3.372,1.94 1.958,1.447 0.523,0.955 -0.141,0.272 0,0"
             style="fill:#1a2e35;fill-opacity:1;fill-rule:nonzero;stroke:none"
             id="path292" />
        </g>
        <g
           id="g294"
           transform="translate(594.4298,348.4981)">
          <path
             d="m 0,0 c 0.089,0.205 -2.086,1.384 -5.666,3.126 -0.916,0.418 -1.751,0.91 -1.692,1.611 0.008,0.761 0.751,1.65 1.583,2.599 1.668,1.995 3.414,4.085 5.245,6.276 7.37,8.97 13.046,16.474 12.682,16.768 C 11.788,30.674 5.52,23.642 -1.849,14.672 -3.644,12.452 -5.357,10.338 -6.991,8.313 -7.713,7.355 -8.745,6.341 -8.74,4.755 -8.725,3.96 -8.202,3.21 -7.649,2.842 -7.104,2.45 -6.573,2.26 -6.114,2.073 -2.416,0.599 -0.086,-0.207 0,0"
             style="fill:#1a2e35;fill-opacity:1;fill-rule:nonzero;stroke:none"
             id="path296" />
        </g>
        <g
           id="g298"
           transform="translate(604.496,342.2358)">
          <path
             d="m 0,0 c -0.593,0.239 -1.962,-3.791 -6.38,-5.487 -4.416,-1.709 -8.561,0.196 -8.783,-0.357 -0.142,-0.234 0.693,-1.107 2.49,-1.769 1.759,-0.662 4.552,-0.968 7.255,0.07 2.698,1.044 4.395,3.08 5.091,4.688 C 0.396,-1.221 0.284,-0.07 0,0"
             style="fill:#1a2e35;fill-opacity:1;fill-rule:nonzero;stroke:none"
             id="path300" />
        </g>
        <g
           id="g302"
           transform="translate(622.6926,387.5521)">
          <path
             d="m 0,0 c 0.025,-1.134 3.896,-1.908 8.078,-3.905 4.221,-1.913 7.305,-4.376 8.19,-3.666 0.404,0.347 0.112,1.504 -0.979,2.962 C 14.21,-3.158 12.276,-1.47 9.758,-0.295 7.238,0.874 4.701,1.268 2.896,1.158 1.078,1.054 0.004,0.532 0,0"
             style="fill:#1a2e35;fill-opacity:1;fill-rule:nonzero;stroke:none"
             id="path304" />
        </g>
        <g
           id="g306"
           transform="translate(587.2187,398.1685)">
          <path
             d="m 0,0 c 0.369,-1.064 3.224,-1.053 6.315,-2.051 3.126,-0.89 5.492,-2.486 6.39,-1.806 0.407,0.339 0.283,1.323 -0.586,2.506 -0.853,1.175 -2.511,2.46 -4.647,3.11 C 5.335,2.406 3.244,2.26 1.881,1.757 0.501,1.257 -0.149,0.509 0,0"
             style="fill:#1a2e35;fill-opacity:1;fill-rule:nonzero;stroke:none"
             id="path308" />
        </g>
        <g
           id="g310"
           transform="translate(652.2639,345.5025)">
          <path
             d="M 0,0 C 0.473,0.039 18.271,-0.696 12.162,-17.046 6.052,-33.396 -9.102,-23.89 -8.956,-23.41 -8.809,-22.931 0,0 0,0"
             style="fill:#ffc19d;fill-opacity:1;fill-rule:nonzero;stroke:none"
             id="path312" />
        </g>
        <g
           id="g314"
           transform="translate(650.6169,326.4199)">
          <path
             d="M 0,0 C 0.092,0.026 0.211,-0.305 0.61,-0.706 0.998,-1.096 1.75,-1.546 2.722,-1.545 4.686,-1.557 7.165,0.642 8.346,3.559 8.943,5.031 9.161,6.565 9.072,7.935 9.02,9.318 8.559,10.442 7.747,10.922 6.956,11.445 6.146,11.155 5.774,10.769 5.384,10.394 5.366,10.029 5.269,10.033 5.208,10.009 5.02,10.438 5.404,11.064 c 0.189,0.3 0.525,0.614 1.026,0.784 0.512,0.173 1.15,0.12 1.731,-0.172 C 9.389,11.118 10.091,9.534 10.189,8.03 10.355,6.493 10.145,4.757 9.474,3.103 8.138,-0.152 5.299,-2.605 2.681,-2.405 1.419,-2.275 0.589,-1.57 0.237,-0.999 -0.118,-0.406 -0.068,-0.008 0,0"
             style="fill:#ff9c6a;fill-opacity:1;fill-rule:nonzero;stroke:none"
             id="path316" />
        </g>
        <g
           id="g318"
           transform="translate(600.6361,421.0653)">
          <path
             d="M 0,0 C -2.079,2.467 9.113,7.971 16.722,8.424 28.223,9.109 44.23,6.106 52.279,0.079 c 9.69,-7.255 16.648,-16.132 18.309,-28.123 1.661,-11.992 -0.711,-24.31 -5.364,-35.487 -1.419,-3.409 -3.156,-6.865 -6.116,-9.074 -3.659,-2.729 -8.896,-3.323 -10.612,-8.366 -0.627,-1.843 -1.849,-3.478 -3.602,-4.324 -4.198,-2.029 -6.702,2.351 -7.233,5.983 -1.132,7.757 1.393,15.53 3.884,22.963 1.771,5.283 3.597,10.672 6.978,15.102 1.839,2.41 4.105,4.485 5.808,6.993 1.703,2.509 2.82,5.669 1.967,8.579 -0.139,0.473 -0.422,1.112 -0.81,1.847 -3.062,5.815 -9.058,9.505 -15.628,9.679 -10.422,0.275 -27.953,1.44 -30.851,6.124 C 4.84,-1.285 4.553,2.177 4.553,2.177 Z"
             style="fill:#1a2e35;fill-opacity:1;fill-rule:nonzero;stroke:none"
             id="path320" />
        </g>
        <g
           id="g322"
           transform="translate(655.0314,431.1184)">
          <path
             d="m 0,0 c 1.048,-0.532 25.62,-15.713 25.457,-37.85 -0.162,-22.137 -4.212,-27.559 -4.212,-27.559 0,0 1.222,-1.47 1.958,-3.348 0.66,-1.683 -3.109,-7.38 -6.344,-5.479 -22.061,20.469 -52.462,32.223 -87.143,42.962 l -26.162,9.364 c -7.651,1.676 -9.562,4.517 -5.823,5.296 2.866,0.597 26.626,1.798 26.626,1.798 l 5.132,1.58 16.025,11.312 c 0,0 -0.62,2.554 2.633,3.385 C -48.6,2.292 -20.693,10.501 0,0"
             style="fill:#ff735d;fill-opacity:1;fill-rule:nonzero;stroke:none"
             id="path324" />
        </g>
        <g
           id="g326"
           transform="translate(584.52,417.882)">
          <path
             d="m 0,0 c 0,0 0.348,-0.139 1.022,-0.36 0.805,-0.257 1.78,-0.569 2.955,-0.944 2.581,-0.767 6.257,-2.066 10.772,-3.731 8.984,-3.431 21.174,-8.873 33.751,-16.476 12.628,-7.52 23.357,-15.431 31.017,-21.26 3.839,-2.908 6.896,-5.327 9.02,-6.982 0.974,-0.758 1.782,-1.387 2.449,-1.906 0.562,-0.432 0.873,-0.64 0.873,-0.64 0,0 -0.271,0.258 -0.815,0.713 -0.651,0.538 -1.441,1.189 -2.393,1.975 -2.09,1.699 -5.117,4.158 -8.933,7.102 -7.612,5.9 -18.326,13.864 -30.979,21.399 C 36.138,-13.492 23.894,-8.083 14.865,-4.725 5.803,-1.417 0,0 0,0"
             style="fill:#1a2e35;fill-opacity:1;fill-rule:nonzero;stroke:none"
             id="path328" />
        </g>
        <g
           id="g330">
          <g
             id="g332" />
          <g
             id="g344">
            <g
               clip-path="url(#clipPath336)"
               opacity="0.300003"
               id="g342">
              <g
                 transform="translate(675.3376,411.0512)"
                 id="g340">
                <path
                   d="m 0,0 c 0,0 -27.116,14.516 -42.097,12.755 0.583,0.08 1.167,0.159 1.75,0.238 -4.662,-0.388 -9.323,-0.776 -13.985,-1.164 -2.361,-0.197 -5.075,-0.267 -6.7,1.457 0,0 8.492,3.599 21.9,3.53 C -25.724,16.747 -6.048,11.937 0,0"
                   style="fill:#000000;fill-opacity:1;fill-rule:nonzero;stroke:none"
                   id="path338" />
              </g>
            </g>
          </g>
        </g>
        <g
           id="g346"
           transform="translate(675.7034,410.7568)">
          <path
             d="m 0,0 c 0,0 -0.61,0.992 -1.993,2.57 -1.377,1.574 -3.515,3.765 -6.577,5.944 -3.037,2.201 -6.998,4.379 -11.698,5.993 -4.671,1.611 -10.155,2.766 -15.901,2.208 -2.863,-0.242 -5.607,-0.807 -8.241,-1.358 -2.626,-0.598 -5.178,-1.041 -7.58,-1.709 -2.385,-0.669 -4.617,-1.407 -6.787,-1.616 -2.177,-0.305 -4.16,0.218 -5.932,0.789 -7.09,2.329 -10.921,5.278 -10.449,5.616 0.005,0.018 -0.02,-0.332 0.372,-0.751 0.385,-0.4 1.018,-0.931 1.916,-1.474 1.786,-1.101 4.503,-2.489 8.058,-3.704 1.755,-0.594 3.848,-1.158 6.074,-0.861 2.224,0.198 4.491,0.934 6.862,1.587 2.367,0.646 4.939,1.085 7.56,1.675 2.631,0.545 5.359,1.102 8.187,1.341 5.667,0.551 11.074,-0.574 15.722,-2.151 4.666,-1.577 8.608,-3.705 11.646,-5.854 3.063,-2.128 5.22,-4.267 6.633,-5.797 C -1.422,1.68 -0.897,1.063 -0.556,0.632 -0.204,0.209 0,0 0,0"
             style="fill:#1a2e35;fill-opacity:1;fill-rule:nonzero;stroke:none"
             id="path348" />
        </g>
        <g
           id="g350">
          <g
             id="g352" />
          <g
             id="g364">
            <g
               clip-path="url(#clipPath356)"
               opacity="0.300003"
               id="g362">
              <g
                 transform="translate(680.1386,384.1221)"
                 id="g360">
                <path
                   d="m 0,0 c -5.135,1.805 -8.581,4.482 -13.307,7.356 -5.036,3.062 -10.107,5.859 -14.991,9.158 -3.706,2.504 -8.199,5.149 -9.848,9.017 -1.12,-2.002 -1.146,-4.156 -0.096,-6.195 1.049,-2.039 5.507,-5.57 7.404,-6.859 C -20.029,5.129 -12.516,0.108 -0.435,-5.006 -0.104,-3.693 0,0 0,0"
                   style="fill:#000000;fill-opacity:1;fill-rule:nonzero;stroke:none"
                   id="path358" />
              </g>
            </g>
          </g>
        </g>
        <g
           id="g366"
           transform="translate(680.4043,395.7227)">
          <path
             d="m 0,0 c 2.775,-2.535 4.448,-4.176 3.588,-6.986 -0.716,-2.339 -2.157,-5.006 -4.574,-4.628 -0.737,0.116 -1.4,0.5 -2.044,0.877 -11.024,6.457 -22.049,12.914 -33.073,19.371 -1.119,0.655 -2.32,1.407 -2.746,2.631 -0.656,1.883 0.987,3.94 2.91,4.463 1.923,0.523 3.958,-0.048 5.855,-0.661 C -19.303,11.582 -9.471,6.22 0,0"
             style="fill:#ff735d;fill-opacity:1;fill-rule:nonzero;stroke:none"
             id="path368" />
        </g>
        <g
           id="g370"
           transform="translate(641.923,406.2791)">
          <path
             d="m 0,0 c 0.068,0.02 -0.486,0.605 -0.423,1.878 0.052,1.197 0.891,3.161 3,3.982 2.122,0.719 4.934,0.237 7.69,-0.875 2.801,-1.122 5.87,-2.398 9.037,-3.845 6.351,-2.873 11.837,-6.019 15.571,-8.642 1.883,-1.289 3.337,-2.43 4.34,-3.221 0.408,-0.33 0.785,-0.634 1.144,-0.924 0.265,-0.207 0.41,-0.311 0.421,-0.299 0.01,0.012 -0.113,0.139 -0.359,0.37 -0.342,0.311 -0.701,0.638 -1.09,0.993 -0.97,0.836 -2.398,2.022 -4.265,3.352 -3.703,2.703 -9.197,5.914 -15.568,8.795 C 16.319,3.017 13.243,4.283 10.423,5.387 7.609,6.49 4.718,6.977 2.459,6.169 0.207,5.236 -0.602,3.143 -0.605,1.884 -0.615,1.226 -0.444,0.733 -0.295,0.427 -0.124,0.13 -0.009,-0.007 0,0"
             style="fill:#1a2e35;fill-opacity:1;fill-rule:nonzero;stroke:none"
             id="path372" />
        </g>
        <g
           id="g374"
           transform="translate(595.5163,425.6437)">
          <path
             d="m 0,0 22.516,-7.212 -4.052,-5.652 -24.132,8.863 z"
             style="fill:#ffffff;fill-opacity:1;fill-rule:nonzero;stroke:none"
             id="path376" />
        </g>
        <g
           id="g378"
           transform="translate(622.5164,394.1908)">
          <path
             d="m 0,0 c 0.058,0.115 -9.421,4.962 -21.168,10.824 -11.751,5.864 -21.32,10.522 -21.378,10.407 -0.058,-0.115 9.419,-4.961 21.17,-10.825 C -9.629,4.544 -0.057,-0.116 0,0"
             style="fill:#1a2e35;fill-opacity:1;fill-rule:nonzero;stroke:none"
             id="path380" />
        </g>
        <g
           id="g382"
           transform="translate(628.1944,272.8721)">
          <path
             d="m 0,0 0.295,14.781 -50.58,-18.789 c 0,0 -9.347,30.365 -9.347,31.798 l -11.209,-7.045 -18.63,8.01 -18.63,9.207 -37.683,-65.955 -39.529,-116.563 93.154,-62.12 69.06,74.011 41.983,63.974 23.084,40.523 z"
             style="fill:#ff735d;fill-opacity:1;fill-rule:nonzero;stroke:none"
             id="path384" />
        </g>
        <g
           id="g386"
           transform="translate(573.413,269.0783)">
          <path
             d="M 0,0 C -0.03,0 -0.056,0.517 -0.078,1.478 -0.091,2.513 -0.108,3.902 -0.13,5.623 L 0.099,5.478 C -3.771,3.601 -9.592,0.219 -15.132,-4.952 l -0.405,-0.377 -0.031,0.553 c -0.037,0.658 -0.077,1.359 -0.117,2.068 -0.405,7.249 -0.743,13.813 -0.962,18.566 -0.096,2.32 -0.174,4.225 -0.232,5.63 -0.015,0.617 -0.027,1.123 -0.037,1.532 -0.003,0.351 0.005,0.535 0.022,0.536 0.018,10e-4 0.046,-0.182 0.083,-0.53 0.036,-0.408 0.08,-0.912 0.134,-1.527 0.099,-1.403 0.234,-3.304 0.398,-5.62 0.312,-4.748 0.709,-11.309 1.114,-18.558 0.04,-0.709 0.079,-1.41 0.115,-2.068 l -0.435,0.176 c 5.597,5.207 11.51,8.554 15.447,10.338 L 0.196,5.873 0.19,5.621 C 0.15,3.9 0.118,2.512 0.094,1.477 0.062,0.516 0.03,0 0,0"
             style="fill:#1a2e35;fill-opacity:1;fill-rule:nonzero;stroke:none"
             id="path388" />
        </g>
        <g
           id="g390"
           transform="translate(623.5296,272.1614)">
          <path
             d="m 0,0 c 0.007,-0.016 -0.191,-0.124 -0.576,-0.313 -0.437,-0.207 -0.998,-0.474 -1.694,-0.804 -1.539,-0.705 -3.665,-1.678 -6.268,-2.87 -5.366,-2.4 -12.68,-5.671 -20.761,-9.286 -3.461,-1.529 -6.782,-2.995 -9.863,-4.356 l -0.421,-0.186 0.079,0.452 c 0.99,5.633 1.192,10.601 1.152,14.233 l 0.235,-0.141 c -1.959,-0.952 -3.529,-1.715 -4.669,-2.269 -0.509,-0.237 -0.922,-0.43 -1.25,-0.583 -0.286,-0.127 -0.437,-0.187 -0.444,-0.173 -0.007,0.013 0.131,0.1 0.403,0.253 0.319,0.173 0.719,0.39 1.212,0.658 1.124,0.587 2.672,1.395 4.602,2.402 l 0.226,0.118 0.008,-0.259 c 0.116,-3.645 -0.027,-8.646 -0.991,-14.323 l -0.341,0.266 c 3.077,1.37 6.394,2.846 9.851,4.384 8.105,3.56 15.441,6.783 20.822,9.147 2.631,1.129 4.781,2.051 6.336,2.718 0.712,0.294 1.287,0.531 1.733,0.715 C -0.22,-0.059 -0.007,0.016 0,0"
             style="fill:#1a2e35;fill-opacity:1;fill-rule:nonzero;stroke:none"
             id="path392" />
        </g>
        <g
           id="g394"
           transform="translate(535.1027,53.2417)">
          <path
             d="m 0,0 h -380.906 c -8.046,0 -14.568,6.522 -14.568,14.567 v 263.741 c 0,8.045 6.522,14.567 14.568,14.567 H 0 c 8.045,0 14.567,-6.522 14.567,-14.567 V 14.567 C 14.567,6.522 8.045,0 0,0"
             style="fill:#375a64;fill-opacity:1;fill-rule:nonzero;stroke:none"
             id="path396" />
        </g>
        <g
           id="g398"
           transform="translate(550.0543,46.5301)">
          <path
             d="m 0,0 h -408.653 c -9.829,0 -17.797,7.968 -17.797,17.798 v 7.828 H 17.798 V 17.798 C 17.798,7.968 9.829,0 0,0"
             style="fill:#375a64;fill-opacity:1;fill-rule:nonzero;stroke:none"
             id="path400" />
        </g>
        <path
           d="M 537.517,87.152 H 150.636 v 247.329 h 386.881 z"
           style="fill:#1a2e35;fill-opacity:1;fill-rule:nonzero;stroke:none"
           id="path402" />
        <g
           id="g404"
           transform="translate(304.2279,74.9028)">
          <path
             d="M 0,0 5.513,-9.471 H 83.084 L 88.203,0 Z"
             style="fill:#1a2e35;fill-opacity:1;fill-rule:nonzero;stroke:none"
             id="path406" />
        </g>
        <g
           id="g408"
           transform="translate(527.0713,87.9434)">
          <path
             d="m 0,0 h -365.194 c -1.808,0 -3.273,1.465 -3.273,3.273 v 231.618 c 0,1.808 1.465,3.273 3.273,3.273 H 0 c 1.807,0 3.273,-1.465 3.273,-3.272 V 3.272 C 3.273,1.465 1.807,0 0,0"
             style="fill:#ececec;fill-opacity:1;fill-rule:nonzero;stroke:none"
             id="path410" />
        </g>
        <g
           id="g412"
           transform="translate(529.946,87.5949)">
          <path
             d="m 0,0 h -371.74 l 0.398,220.714 H 0 Z"
             style="fill:#fafafa;fill-opacity:1;fill-rule:nonzero;stroke:none"
             id="path414" />
        </g>
        <g
           id="g416"
           transform="translate(189.8379,316.91)">
          <path
             d="m 0,0 c 0,-1.771 -1.371,-3.207 -3.061,-3.207 -1.691,0 -3.061,1.436 -3.061,3.207 0,1.771 1.37,3.206 3.061,3.206 C -1.371,3.206 0,1.771 0,0"
             style="fill:#1a2e35;fill-opacity:1;fill-rule:nonzero;stroke:none"
             id="path418" />
        </g>
        <g
           id="g420"
           transform="translate(171.2841,316.91)">
          <path
             d="m 0,0 c 0,-1.771 -1.37,-3.207 -3.062,-3.207 -1.69,0 -3.061,1.436 -3.061,3.207 0,1.771 1.371,3.206 3.061,3.206 C -1.37,3.206 0,1.771 0,0"
             style="fill:#1a2e35;fill-opacity:1;fill-rule:nonzero;stroke:none"
             id="path422" />
        </g>
        <g
           id="g424"
           transform="translate(180.8201,316.91)">
          <path
             d="m 0,0 c 0,-1.771 -1.37,-3.207 -3.061,-3.207 -1.691,0 -3.062,1.436 -3.062,3.207 0,1.771 1.371,3.206 3.062,3.206 C -1.37,3.206 0,1.771 0,0"
             style="fill:#1a2e35;fill-opacity:1;fill-rule:nonzero;stroke:none"
             id="path426" />
        </g>
        <g
           id="g428"
           transform="translate(546.1463,74.903)">
          <path
             d="m 0,0 c 0,-0.159 -91.009,-0.287 -203.249,-0.287 -112.279,0 -203.268,0.128 -203.268,0.287 0,0.158 90.989,0.287 203.268,0.287 C -91.009,0.287 0,0.158 0,0"
             style="fill:#1a2e35;fill-opacity:1;fill-rule:nonzero;stroke:none"
             id="path430" />
        </g>
        <g
           id="g432"
           transform="translate(321.7843,222.8821)">
          <path
             d="m 0,0 c -13.312,-13.789 -12.927,-35.757 0.862,-49.069 13.789,-13.312 35.757,-12.926 49.069,0.863 13.311,13.788 12.926,35.757 -0.863,49.069 C 35.28,14.174 13.312,13.788 0,0 m -17.241,43.087 c 6.115,3.696 12.625,6.498 19.34,8.405 l 3.984,19.144 32.344,0.567 4.654,-18.99 c 6.778,-1.67 13.384,-4.241 19.625,-7.72 L 79.053,55.208 102.326,32.737 92.194,16.028 C 95.89,9.91 98.692,3.398 100.598,-3.317 l 19.142,-3.984 0.568,-32.344 -18.99,-4.656 c -1.67,-6.776 -4.242,-13.38 -7.72,-19.622 l 10.713,-16.348 -22.468,-23.273 -16.711,10.133 c -6.117,-3.696 -12.628,-6.497 -19.344,-8.404 l -3.984,-19.144 -32.343,-0.568 -4.656,18.992 c -6.777,1.671 -13.381,4.243 -19.624,7.721 l -16.346,-10.715 -23.273,22.469 10.133,16.71 c -3.696,6.118 -6.5,12.628 -8.406,19.344 l -19.143,3.984 -0.567,32.343 18.991,4.657 c 1.67,6.776 4.243,13.381 7.72,19.623 l -10.714,16.347 22.468,23.273 z"
             style="fill:#e1e1e1;fill-opacity:1;fill-rule:nonzero;stroke:none"
             id="path434" />
        </g>
        <g
           id="g436"
           transform="translate(448.8173,250.2564)">
          <path
             d="m 0,0 c -0.674,-7.97 6.273,-14.216 13.994,-12.881 5.263,0.911 9.389,5.358 9.84,10.68 C 24.511,5.77 17.561,12.02 9.839,10.682 4.575,9.771 0.45,5.323 0,0 m -15.066,3.37 c 0.445,2.423 1.21,4.743 2.253,6.911 l -4.029,5.404 7.247,8.475 5.963,-3.14 c 1.981,1.367 4.154,2.483 6.478,3.298 l 0.973,6.667 11.117,0.868 1.995,-6.434 c 2.423,-0.444 4.744,-1.21 6.912,-2.253 l 5.403,4.028 8.475,-7.247 -3.14,-5.964 c 1.367,-1.98 2.483,-4.153 3.298,-6.477 L 44.546,6.533 45.415,-4.583 38.98,-6.579 c -0.444,-2.423 -1.21,-4.743 -2.253,-6.911 l 4.028,-5.405 -7.246,-8.474 -5.965,3.14 c -1.98,-1.366 -4.153,-2.482 -6.477,-3.298 l -0.972,-6.667 -11.117,-0.868 -1.995,6.434 c -2.423,0.445 -4.744,1.21 -6.912,2.253 l -5.404,-4.028 -8.474,7.247 3.139,5.964 c -1.366,1.98 -2.482,4.153 -3.298,6.477 l -6.666,0.973 -0.869,11.116 z"
             style="fill:#e1e1e1;fill-opacity:1;fill-rule:nonzero;stroke:none"
             id="path438" />
        </g>
        <g
           id="g440"
           transform="translate(208.7527,138.3678)">
          <path
             d="M 0,0 C 1.779,-7.593 9.375,-12.306 16.968,-10.527 24.56,-8.748 29.273,-1.151 27.494,6.441 25.715,14.033 18.119,18.747 10.526,16.967 2.934,15.189 -1.778,7.592 0,0 m -18.535,3.607 c 0.085,2.906 0.563,5.75 1.392,8.466 l -5.667,5.585 6.939,11.184 7.519,-2.597 c 2.066,1.949 4.402,3.641 6.968,5.008 l -0.058,7.952 12.815,3.002 3.479,-7.15 c 2.907,-0.085 5.752,-0.563 8.468,-1.392 l 5.583,5.666 11.185,-6.939 -2.596,-7.52 c 1.948,-2.065 3.639,-4.401 5.006,-6.967 L 50.45,17.963 53.453,5.148 46.303,1.669 C 46.218,-1.237 45.739,-4.082 44.91,-6.798 l 5.667,-5.585 -6.939,-11.183 -7.52,2.596 c -2.066,-1.949 -4.402,-3.639 -6.967,-5.007 l 0.058,-7.952 -12.815,-3.002 -3.479,7.15 c -2.907,0.085 -5.751,0.562 -8.468,1.392 l -5.583,-5.667 -11.184,6.939 2.596,7.52 c -1.949,2.066 -3.64,4.402 -5.007,6.967 l -7.952,-0.058 -3.003,12.815 z"
             style="fill:#e1e1e1;fill-opacity:1;fill-rule:nonzero;stroke:none"
             id="path442" />
        </g>
        <g
           id="g444"
           transform="translate(224.5809,244.7515)">
          <path
             d="m 0,0 c 0.388,-4.966 4.727,-8.676 9.693,-8.288 4.965,0.387 8.676,4.727 8.288,9.693 C 17.593,6.37 13.254,10.081 8.288,9.693 3.323,9.305 -0.388,4.965 0,0 m -11.352,4.072 c 0.335,1.826 0.912,3.575 1.698,5.21 l -3.037,4.074 5.463,6.389 4.496,-2.367 c 1.493,1.03 3.132,1.872 4.884,2.486 l 0.733,5.027 8.381,0.654 1.504,-4.851 c 1.827,-0.335 3.577,-0.912 5.211,-1.698 l 4.074,3.036 6.389,-5.463 -2.367,-4.496 c 1.03,-1.493 1.872,-3.131 2.486,-4.884 l 5.026,-0.733 0.655,-8.381 -4.851,-1.504 C 29.058,-5.256 28.481,-7.005 27.695,-8.64 l 3.037,-4.074 -5.464,-6.389 -4.496,2.368 c -1.493,-1.031 -3.131,-1.872 -4.884,-2.487 l -0.732,-5.026 -8.382,-0.654 -1.504,4.85 c -1.826,0.335 -3.576,0.912 -5.211,1.699 l -4.073,-3.037 -6.389,5.463 2.367,4.497 c -1.031,1.492 -1.872,3.131 -2.487,4.883 l -5.026,0.733 -0.655,8.381 z"
             style="fill:#ececec;fill-opacity:1;fill-rule:nonzero;stroke:none"
             id="path446" />
        </g>
        <g
           id="g448"
           transform="translate(443.923,155.0757)">
          <path
             d="m 0,0 c 0.333,-4.265 4.061,-7.453 8.326,-7.12 4.265,0.334 7.453,4.061 7.119,8.326 -0.333,4.265 -4.06,7.453 -8.326,7.12 C 2.854,7.993 -0.333,4.265 0,0 m -9.751,3.497 c 0.288,1.569 0.783,3.072 1.458,4.476 l -2.608,3.499 4.693,5.488 3.861,-2.033 c 1.283,0.885 2.69,1.608 4.195,2.136 l 0.63,4.317 7.199,0.562 1.292,-4.166 c 1.57,-0.288 3.072,-0.784 4.477,-1.459 l 3.499,2.608 5.488,-4.693 -2.034,-3.862 c 0.885,-1.282 1.608,-2.689 2.136,-4.194 l 4.317,-0.63 0.563,-7.199 -4.167,-1.292 C 24.96,-4.514 24.464,-6.017 23.789,-7.421 l 2.609,-3.5 -4.693,-5.488 -3.862,2.034 c -1.283,-0.885 -2.69,-1.608 -4.195,-2.136 l -0.63,-4.317 -7.199,-0.563 -1.292,4.167 c -1.569,0.288 -3.072,0.783 -4.476,1.459 l -3.499,-2.609 -5.488,4.693 2.033,3.863 c -0.885,1.282 -1.607,2.689 -2.136,4.194 l -4.317,0.63 -0.562,7.199 z"
             style="fill:#ececec;fill-opacity:1;fill-rule:nonzero;stroke:none"
             id="path450" />
        </g>
        <g
           id="g452"
           transform="translate(345.7278,147.7244)">
          <path
             d="m 0,0 h -49.753 c -12.849,0 -20.879,13.909 -14.455,25.036 l 24.877,43.088 24.876,43.088 c 6.425,11.127 22.486,11.127 28.91,0 L 39.332,68.124 64.208,25.036 C 70.633,13.909 62.602,0 49.753,0 Z"
             style="fill:#ff735d;fill-opacity:1;fill-rule:nonzero;stroke:none"
             id="path454" />
        </g>
        <g
           id="g456"
           transform="translate(399.2851,167.7822)">
          <path
             d="m 0,0 c 0,0 0.139,-0.257 0.389,-0.773 0.19,-0.534 0.505,-1.354 0.504,-2.485 0.028,-1.116 -0.25,-2.546 -1.163,-3.929 -0.464,-0.678 -1.075,-1.345 -1.875,-1.868 -0.804,-0.508 -1.787,-0.862 -2.861,-0.934 -8.478,-0.091 -20.721,-0.076 -35.862,-0.113 -15.143,-0.016 -33.167,-0.035 -53.18,-0.056 -2.502,-0.001 -5.035,-0.003 -7.597,-0.004 -2.698,-0.059 -5.263,1.858 -6.13,4.435 -0.458,1.275 -0.557,2.689 -0.252,4.028 0.087,0.331 0.195,0.658 0.303,0.983 0.146,0.309 0.285,0.631 0.44,0.93 l 0.959,1.754 c 1.282,2.345 2.577,4.713 3.883,7.102 5.226,9.554 10.638,19.446 16.18,29.578 5.547,10.133 10.963,20.027 16.194,29.582 2.617,4.777 5.187,9.469 7.704,14.064 0.642,1.147 1.227,2.295 1.906,3.425 0.685,1.14 1.646,2.126 2.799,2.779 2.294,1.338 5.188,1.43 7.524,0.337 1.166,-0.542 2.209,-1.355 2.973,-2.375 0.752,-1.046 1.272,-2.144 1.872,-3.208 1.169,-2.14 2.321,-4.251 3.458,-6.332 2.272,-4.162 4.478,-8.202 6.611,-12.108 4.263,-7.813 8.234,-15.092 11.859,-21.738 7.233,-13.289 13.086,-24.044 17.14,-31.492 2.008,-3.715 3.57,-6.602 4.636,-8.575 0.521,-0.974 0.919,-1.72 1.195,-2.236 C -0.125,0.265 0,0 0,0 c 0,0 -0.156,0.248 -0.438,0.745 -0.286,0.511 -0.7,1.248 -1.24,2.211 -1.086,1.963 -2.676,4.834 -4.722,8.528 -4.088,7.429 -9.991,18.158 -17.285,31.414 -3.643,6.636 -7.632,13.904 -11.915,21.706 -2.14,3.903 -4.354,7.939 -6.634,12.096 -1.14,2.079 -2.296,4.188 -3.468,6.326 -0.596,1.058 -1.142,2.186 -1.837,3.145 -0.721,0.961 -1.701,1.72 -2.798,2.229 -2.196,1.025 -4.925,0.934 -7.075,-0.325 -1.082,-0.613 -1.981,-1.537 -2.624,-2.613 -0.655,-1.091 -1.256,-2.267 -1.892,-3.407 -2.513,-4.597 -5.08,-9.291 -7.692,-14.07 -5.228,-9.557 -10.641,-19.452 -16.185,-29.587 -5.546,-10.13 -10.96,-20.02 -16.19,-29.573 -1.307,-2.388 -2.604,-4.755 -3.888,-7.099 -0.613,-1.193 -1.395,-2.293 -1.656,-3.539 -0.284,-1.243 -0.193,-2.557 0.232,-3.745 0.812,-2.404 3.17,-4.164 5.662,-4.115 2.562,-0.002 5.095,-0.003 7.597,-0.005 20.013,-0.021 38.037,-0.04 53.18,-0.056 15.126,-0.022 27.37,-0.04 35.848,-0.053 1.04,0.062 1.994,0.396 2.779,0.883 0.781,0.502 1.382,1.146 1.842,1.803 0.907,1.343 1.198,2.743 1.188,3.842 C 0.748,-1.016 -0.096,-0.019 0,0"
             style="fill:#1a2e35;fill-opacity:1;fill-rule:nonzero;stroke:none"
             id="path458" />
        </g>
        <g
           id="g460"
           transform="translate(337.7496,222.1598)">
          <path
             d="M 0,0 H 16.901 L 14.059,-33.279 H 2.767 Z m -0.075,-45.169 c 0,4.412 3.515,7.702 8.526,7.702 5.01,0 8.45,-3.29 8.45,-7.702 0,-4.338 -3.44,-7.852 -8.45,-7.852 -5.011,0 -8.526,3.514 -8.526,7.852"
             style="fill:#ffffff;fill-opacity:1;fill-rule:nonzero;stroke:none"
             id="path462" />
        </g>
        <g
           id="g464"
           transform="translate(348.1124,263.8843)">
          <path
             d="m 0,0 c -0.038,-0.105 -1.164,0.559 -3.167,0.652 -1.971,0.116 -4.808,-0.533 -7.21,-2.411 -2.4,-1.893 -3.862,-4.34 -4.768,-6.121 -0.907,-1.801 -1.333,-2.987 -1.414,-2.957 -0.032,0.011 0.037,0.319 0.209,0.863 0.171,0.544 0.453,1.32 0.873,2.253 0.833,1.845 2.279,4.399 4.779,6.372 2.514,1.967 5.507,2.586 7.556,2.368 C -2.111,0.921 -1.299,0.678 -0.776,0.44 -0.249,0.206 0.013,0.025 0,0"
             style="fill:#ffffff;fill-opacity:1;fill-rule:nonzero;stroke:none"
             id="path466" />
        </g>
        <g
           id="g468"
           transform="translate(327.309,245.6011)">
          <path
             d="M 0,0 C -0.124,0.073 0.366,1.131 1.095,2.362 1.823,3.594 2.514,4.533 2.638,4.459 2.762,4.386 2.272,3.329 1.543,2.097 0.815,0.866 0.124,-0.073 0,0"
             style="fill:#ffffff;fill-opacity:1;fill-rule:nonzero;stroke:none"
             id="path470" />
        </g>
        <g
           id="g472">
          <g
             id="g474" />
          <g
             id="g486">
            <g
               clip-path="url(#clipPath478)"
               opacity="0.300003"
               id="g484">
              <g
                 transform="translate(370.6862,240.7434)"
                 id="g482">
                <path
                   d="M 0,0 -77.483,-47.746 -87.548,-65.179 5.471,-9.475 Z"
                   style="fill:#ffffff;fill-opacity:1;fill-rule:nonzero;stroke:none"
                   id="path480" />
              </g>
            </g>
          </g>
        </g>
        <g
           id="g488">
          <g
             id="g490" />
          <g
             id="g502">
            <g
               clip-path="url(#clipPath494)"
               opacity="0.300003"
               id="g500">
              <g
                 transform="translate(382.8868,219.5845)"
                 id="g498">
                <path
                   d="m 0,0 -102.705,-60.584 c 0.294,-1.375 1.217,-3.149 2.231,-4.317 L 1.816,-3.146 Z"
                   style="fill:#ffffff;fill-opacity:1;fill-rule:nonzero;stroke:none"
                   id="path496" />
              </g>
            </g>
          </g>
        </g>
        <g
           id="g504"
           transform="translate(636.7156,106.6046)">
          <path
             d="m 0,0 c -8.227,9.067 -20.698,11.98 -31.644,8.473 l -9.572,10.503 -1.333,1.491 -75.727,83.087 c 4.551,10.555 2.862,23.249 -5.365,32.316 -6.997,7.712 -17.064,10.976 -26.652,9.623 l -3.699,-1.47 12.881,-8.65 -0.682,-14.045 -10.414,-9.449 -14.045,0.683 -9.182,10.12 -3.795,-1.483 c -1.088,-8.477 4.595,-19.15 10.788,-25.976 8.214,-9.054 20.66,-11.971 31.595,-8.489 l 76.996,-84.479 2.367,-2.626 7.298,-8.007 c -4.526,-10.545 -2.829,-23.215 5.385,-32.269 6.168,-6.798 14.348,-11.337 22.857,-11.106 l 3.795,1.483 -9.183,10.121 0.683,14.044 10.414,9.449 14.045,-0.683 5.387,-11.603 3.795,1.483 C 9.269,-18.048 6.997,-7.711 0,0"
             style="fill:#e1e1e1;fill-opacity:1;fill-rule:nonzero;stroke:none"
             id="path506" />
        </g>
        <g
           id="g508">
          <g
             id="g510" />
          <g
             id="g522">
            <g
               clip-path="url(#clipPath514)"
               opacity="0.300003"
               id="g520">
              <g
                 transform="translate(636.7156,106.6046)"
                 id="g518">
                <path
                   d="m 0,0 c -8.227,9.067 -20.698,11.98 -31.644,8.473 l -9.572,10.503 -1.333,1.491 -75.727,83.087 c 4.551,10.555 2.862,23.249 -5.365,32.316 -6.997,7.712 -17.064,10.976 -26.652,9.623 l -3.699,-1.47 12.881,-8.65 -0.682,-14.045 -10.414,-9.449 -14.045,0.683 -9.182,10.12 -3.795,-1.483 c -1.088,-8.477 4.595,-19.15 10.788,-25.976 8.214,-9.054 20.66,-11.971 31.595,-8.489 l 76.996,-84.479 2.367,-2.626 7.298,-8.007 c -4.526,-10.545 -2.829,-23.215 5.385,-32.269 6.168,-6.798 14.348,-11.337 22.857,-11.106 l 3.795,1.483 -9.183,10.121 0.683,14.044 10.414,9.449 14.045,-0.683 5.387,-11.603 3.795,1.483 C 9.269,-18.048 6.997,-7.711 0,0"
                   style="fill:#000000;fill-opacity:1;fill-rule:nonzero;stroke:none"
                   id="path516" />
              </g>
            </g>
          </g>
        </g>
        <g
           id="g524"
           transform="translate(632.9205,105.1213)">
          <path
             d="m 0,0 c -8.227,9.067 -20.697,11.98 -31.644,8.473 l -9.572,10.503 -1.333,1.491 -75.727,83.087 c 4.551,10.555 2.862,23.249 -5.365,32.316 -6.997,7.712 -17.064,10.976 -26.652,9.623 l 9.182,-10.12 -0.682,-14.045 -10.414,-9.449 -14.045,0.683 -9.182,10.12 c -2.276,-9.411 -0.004,-19.747 6.993,-27.459 8.215,-9.054 20.66,-11.971 31.595,-8.489 l 76.996,-84.479 2.367,-2.626 7.298,-8.007 c -4.526,-10.545 -2.829,-23.215 5.385,-32.269 6.997,-7.711 17.064,-10.975 26.652,-9.623 l -9.182,10.12 0.682,14.045 10.414,9.449 14.045,-0.683 9.182,-10.12 C 9.269,-18.048 6.997,-7.711 0,0"
             style="fill:#e1e1e1;fill-opacity:1;fill-rule:nonzero;stroke:none"
             id="path526" />
        </g>
        <g
           id="g528"
           transform="translate(632.9204,105.1213)">
          <path
             d="M 0,0 C 0,0 0.436,-0.482 1.27,-1.448 2.04,-2.46 3.226,-3.959 4.4,-6.17 c 1.179,-2.199 2.341,-5.108 3.039,-8.713 0.633,-3.602 0.777,-7.933 -0.341,-12.601 l -0.048,-0.198 -0.137,0.151 c -2.723,2.992 -5.827,6.402 -9.198,10.106 l 0.09,-0.042 c -4.333,0.205 -9.043,0.428 -14.046,0.664 l 0.106,0.038 c -3.251,-2.955 -6.745,-6.132 -10.404,-9.459 l 0.053,0.111 c -0.208,-4.362 -0.435,-9.113 -0.67,-14.045 l -0.045,0.126 c 2.844,-3.129 5.969,-6.567 9.191,-10.113 l 0.237,-0.26 -0.349,-0.049 c -4.751,-0.679 -9.835,-0.233 -14.638,1.506 -4.8,1.725 -9.298,4.758 -12.786,8.865 -3.515,4.073 -6.016,9.233 -6.908,14.821 -0.917,5.574 -0.267,11.546 2.062,16.973 l 0.04,-0.241 c -25.677,28.167 -55.179,60.529 -86.686,95.09 l 0.27,-0.073 c -5.301,-1.691 -11.247,-1.932 -16.903,-0.474 -5.659,1.431 -10.966,4.611 -14.972,9.046 -3.37,3.712 -5.788,8.242 -6.985,13.053 -1.209,4.808 -1.212,9.876 -0.058,14.631 l 0.115,0.476 0.329,-0.362 c 3.082,-3.398 6.142,-6.771 9.181,-10.121 l -0.178,0.084 c 4.717,-0.23 9.399,-0.458 14.044,-0.685 l -0.184,-0.066 c 3.505,3.18 6.975,6.327 10.415,9.447 l -0.083,-0.176 c 0.231,4.735 0.459,9.412 0.685,14.045 l 0.065,-0.181 c -3.095,3.413 -6.153,6.785 -9.18,10.122 l -0.316,0.35 0.466,0.063 c 5.652,0.766 11.443,-0.014 16.521,-2.269 5.087,-2.231 9.462,-5.838 12.571,-10.236 3.129,-4.384 5.049,-9.529 5.515,-14.728 0.491,-5.198 -0.371,-10.408 -2.349,-15.041 l -0.04,0.241 C -80.58,62.445 -50.372,29.235 -31.559,8.551 l -0.12,0.032 c 5.419,1.722 10.569,1.665 14.798,0.917 4.238,-0.84 7.614,-2.325 10.102,-3.849 2.512,-1.508 4.136,-3.043 5.237,-4.03 C -0.511,0.553 0,0 0,0 c 0,0 -0.542,0.525 -1.584,1.577 -1.113,0.97 -2.745,2.486 -5.257,3.971 -2.488,1.502 -5.856,2.961 -10.072,3.779 -4.208,0.725 -9.324,0.763 -14.695,-0.963 l -0.071,-0.023 -0.05,0.055 c -18.849,20.652 -49.113,53.81 -86.714,95.006 l -0.097,0.107 0.057,0.134 c 1.944,4.567 2.789,9.7 2.301,14.819 -0.463,5.12 -2.357,10.182 -5.44,14.495 -3.065,4.329 -7.374,7.875 -12.379,10.067 -4.998,2.216 -10.697,2.98 -16.257,2.224 l 0.149,0.412 c 3.028,-3.336 6.088,-6.706 9.185,-10.118 l 0.07,-0.077 -0.005,-0.105 c -0.225,-4.632 -0.451,-9.31 -0.68,-14.044 l -0.005,-0.105 -0.078,-0.071 c -3.439,-3.121 -6.908,-6.27 -10.413,-9.45 l -0.078,-0.072 -0.106,0.005 c -4.646,0.225 -9.328,0.452 -14.045,0.681 l -0.107,0.005 -0.072,0.08 c -3.04,3.349 -6.101,6.722 -9.183,10.119 l 0.444,0.113 c -1.134,-4.674 -1.13,-9.657 0.059,-14.383 1.177,-4.728 3.553,-9.179 6.866,-12.829 3.939,-4.361 9.153,-7.485 14.716,-8.892 5.559,-1.434 11.405,-1.198 16.616,0.464 l 0.158,0.05 0.112,-0.123 c 31.488,-34.576 60.973,-66.954 86.636,-95.134 l 0.098,-0.108 -0.057,-0.133 c -2.299,-5.344 -2.947,-11.23 -2.048,-16.725 0.873,-5.51 3.332,-10.599 6.795,-14.621 3.437,-4.057 7.87,-7.055 12.605,-8.764 4.738,-1.723 9.758,-2.171 14.452,-1.508 l -0.112,-0.31 c -3.216,3.55 -6.336,6.995 -9.174,10.128 l -0.049,0.054 0.004,0.072 c 0.244,4.932 0.479,9.682 0.696,14.044 l 0.003,0.067 0.049,0.045 c 3.667,3.32 7.167,6.489 10.424,9.437 l 0.046,0.041 0.06,-0.003 c 5.003,-0.249 9.712,-0.484 14.044,-0.7 l 0.054,-0.003 0.035,-0.039 c 3.36,-3.714 6.453,-7.134 9.167,-10.135 l -0.184,-0.047 c 1.126,4.632 1,8.936 0.388,12.521 C 6.6,-11.324 5.46,-8.421 4.301,-6.222 3.147,-4.011 1.979,-2.506 1.225,-1.483 0.408,-0.508 0,0 0,0"
             style="fill:#1a2e35;fill-opacity:1;fill-rule:nonzero;stroke:none"
             id="path530" />
        </g>
        <g
           id="g532"
           transform="translate(511.1882,203.8292)">
          <path
             d="m 0,0 c 0.031,-0.017 -0.087,-0.281 -0.329,-0.746 -0.236,-0.467 -0.631,-1.116 -1.165,-1.886 -1.063,-1.541 -2.786,-3.519 -5.061,-5.274 -2.281,-1.748 -4.636,-2.904 -6.399,-3.535 -0.881,-0.318 -1.609,-0.533 -2.122,-0.64 -0.511,-0.115 -0.796,-0.161 -0.805,-0.127 -0.022,0.085 1.089,0.393 2.794,1.106 1.705,0.709 3.983,1.891 6.219,3.604 2.229,1.72 3.958,3.617 5.081,5.082 C -0.66,-0.951 -0.077,0.044 0,0"
             style="fill:#1a2e35;fill-opacity:1;fill-rule:nonzero;stroke:none"
             id="path534" />
        </g>
        <g
           id="g536"
           transform="translate(595.7566,167.7418)">
          <path
             d="m 0,0 -28.808,13.402 -25.713,3.205 9.444,-7.952 c 0,0 -33.238,-11.584 -33.821,-14.197 -0.583,-2.612 2.626,-9.628 8.481,-8.333 0,0 -3.294,-3.963 -1.922,-8.404 1.371,-4.44 4.399,-5.243 9.987,-4.212 0,0 -3.802,-5.691 -0.821,-8.592 2.98,-2.902 7.617,-2.165 7.617,-2.165 0,0 0.056,-6.932 3.718,-7.538 3.662,-0.606 13.863,0.112 17.67,1.287 3.807,1.176 19.349,5.976 19.349,5.976 l 12.611,2.767 z"
             style="fill:#ffc19d;fill-opacity:1;fill-rule:nonzero;stroke:none"
             id="path538" />
        </g>
        <g
           id="g540"
           transform="translate(542.8164,158.9443)">
          <path
             d="m 0,0 c 0.111,-0.381 -3.713,-1.827 -8.541,-3.229 -4.829,-1.403 -8.832,-2.231 -8.942,-1.85 -0.111,0.38 3.712,1.826 8.542,3.229 C -4.115,-0.448 -0.111,0.381 0,0"
             style="fill:#ff9c6a;fill-opacity:1;fill-rule:nonzero;stroke:none"
             id="path542" />
        </g>
        <g
           id="g544"
           transform="translate(547.7094,145.2654)">
          <path
             d="m 0,0 c 0.115,-0.38 -2.924,-1.63 -6.784,-2.793 -3.863,-1.162 -7.086,-1.797 -7.2,-1.417 -0.114,0.38 2.923,1.63 6.786,2.792 C -3.337,-0.255 -0.114,0.379 0,0"
             style="fill:#ff9c6a;fill-opacity:1;fill-rule:nonzero;stroke:none"
             id="path546" />
        </g>
        <g
           id="g548"
           transform="translate(552.0988,133.8995)">
          <path
             d="m 0,0 c 0.067,-0.426 -2.692,-1.011 -5.934,-1.824 -3.224,-0.847 -5.763,-1.957 -5.964,-1.581 -0.187,0.313 2.147,2.056 5.597,2.969 C -2.868,0.421 -0.052,0.355 0,0"
             style="fill:#ff9c6a;fill-opacity:1;fill-rule:nonzero;stroke:none"
             id="path550" />
        </g>
        <g
           id="g552"
           transform="translate(555.7323,177.5002)">
          <path
             d="m 0,0 c 0.107,-0.389 -3.667,-1.758 -8.33,-3.367 -4.666,-1.602 -8.483,-2.844 -8.638,-2.472 -0.151,0.359 3.456,2.211 8.171,3.83 C -4.086,-0.384 -0.102,0.376 0,0"
             style="fill:#ff9c6a;fill-opacity:1;fill-rule:nonzero;stroke:none"
             id="path554" />
        </g>
        <g
           id="g556"
           transform="translate(590.3421,170.2607)">
          <path
             d="M 0,0 62.286,-22.558 58.647,-65.311 -9.927,-37.663 Z"
             style="fill:#ffc19d;fill-opacity:1;fill-rule:nonzero;stroke:none"
             id="path558" />
        </g>
        <g
           id="g560"
           transform="translate(670.2597,245.0727)">
          <path
             d="m 0,0 c 0,0 8.123,-8.394 12.849,-23.484 4.694,-14.984 27.032,-79.055 26.463,-99.413 -0.588,-21.048 -14.758,-36.068 -45.9,-27.75 -18.583,4.963 -40.717,12.987 -40.717,12.987 l 15.734,51.733 12.309,-3.103 -19.878,37.313 z"
             style="fill:#ff735d;fill-opacity:1;fill-rule:nonzero;stroke:none"
             id="path562" />
        </g>
        <g
           id="g564"
           transform="translate(656.01,220.6184)">
          <path
             d="m 0,0 c 0.117,-0.084 -8.497,-12.356 -19.236,-27.407 -10.744,-15.057 -19.545,-27.191 -19.662,-27.108 -0.118,0.084 8.494,12.353 19.238,27.41 C -8.92,-12.053 -0.117,0.084 0,0"
             style="fill:#1a2e35;fill-opacity:1;fill-rule:nonzero;stroke:none"
             id="path566" />
        </g>
        <g
           id="g568"
           transform="translate(679.8394,148.966)">
          <path
             d="m 0,0 c -0.023,-0.037 -0.537,0.264 -1.511,0.71 -0.971,0.451 -2.422,1.003 -4.27,1.51 -1.846,0.511 -4.087,0.988 -6.575,1.529 -2.493,0.552 -5.221,1.155 -8.083,1.787 -5.733,1.283 -10.917,2.472 -14.662,3.358 -1.805,0.438 -3.297,0.801 -4.43,1.075 -1.043,0.266 -1.616,0.429 -1.608,0.464 0.008,0.035 0.597,-0.062 1.654,-0.266 1.142,-0.234 2.647,-0.542 4.467,-0.914 3.767,-0.795 8.964,-1.927 14.697,-3.209 2.859,-0.647 5.583,-1.264 8.074,-1.827 2.479,-0.567 4.716,-1.081 6.568,-1.643 1.852,-0.557 3.304,-1.17 4.257,-1.682 0.48,-0.25 0.839,-0.469 1.076,-0.628 C -0.11,0.106 0.009,0.015 0,0"
             style="fill:#1a2e35;fill-opacity:1;fill-rule:nonzero;stroke:none"
             id="path570" />
        </g>
        <g
           id="g572">
          <g
             id="g574" />
          <g
             id="g586">
            <g
               clip-path="url(#clipPath578)"
               opacity="0.300003"
               id="g584">
              <g
                 transform="translate(695.7627,146.7152)"
                 id="g582">
                <path
                   d="m 0,0 c -0.247,2.472 -2.097,4.557 -4.286,5.73 -2.189,1.173 -4.696,1.581 -7.157,1.919 -11.195,1.536 -22.508,1.962 -33.799,2.385 l 1.044,-0.453 c 13.936,-2.573 27.612,-6.557 40.749,-11.873 0.756,-0.306 1.615,-0.616 2.36,-0.284 C -0.179,-2.169 0.099,-0.992 0,0"
                   style="fill:#000000;fill-opacity:1;fill-rule:nonzero;stroke:none"
                   id="path580" />
              </g>
            </g>
          </g>
        </g>
        <g
           id="g588">
          <g
             id="g590" />
          <g
             id="g602">
            <g
               clip-path="url(#clipPath594)"
               opacity="0.300003"
               id="g600">
              <g
                 transform="translate(439.1354,345.0844)"
                 id="g598">
                <path
                   d="m 0,0 c -10.497,1.785 -23.054,-1.261 -33.551,0.524 -1.569,0.266 -3.285,0.509 -4.664,-0.285 -1.657,-0.954 -2.23,-3.069 -2.311,-4.979 -0.225,-5.285 2.22,-10.5 6.035,-14.164 3.815,-3.663 8.892,-5.851 14.106,-6.737 4.191,-0.712 8.695,-0.575 12.432,1.45 C -1.428,-20.657 1.728,-7.216 0,0"
                   style="fill:#000000;fill-opacity:1;fill-rule:nonzero;stroke:none"
                   id="path596" />
              </g>
            </g>
          </g>
        </g>
        <g
           id="g604"
           transform="translate(398.3915,325.8735)">
          <path
             d="m 0,0 c 0,0 -6.371,7.462 -7.294,10.908 -0.612,2.283 -0.305,8.667 -0.028,12.717 0.189,2.774 1.913,5.31 4.546,6.203 0.918,0.311 1.788,0.351 2.377,-0.192 0,0 0.403,0.698 2.902,3.258 2.5,2.559 3.687,4.294 9.19,2.702 0,0 4.046,4.272 6.375,3.953 2.328,-0.319 4.635,-0.999 4.635,-0.999 0,0 8.869,0.374 10.687,-2.443 0.796,-1.232 2.436,-2.093 4.028,-2.671 2.802,-1.016 5.103,-3.056 6.328,-5.773 1.666,-3.698 1.771,-7.731 1.771,-7.731 l -9.026,-0.357 c 0,0 0.637,-20.706 -1.629,-22.376 -2.266,-1.671 -3.134,-1.077 -3.134,-1.077 0,0 -1.729,-4.86 -8.476,-1.264 0,0 -5.603,-1.688 -7.993,0.621 C 12.869,-2.212 4.08,19.98 4.08,19.98 L 4.326,8.951 c 0,0 4.63,-7.138 2.363,-8.808 C 4.423,-1.528 0,0 0,0"
             style="fill:#ffc19d;fill-opacity:1;fill-rule:nonzero;stroke:none"
             id="path606" />
        </g>
        <g
           id="g608"
           transform="translate(409.6297,353.9419)">
          <path
             d="m 0,0 c 0.034,0.011 0.216,-0.453 0.514,-1.301 0.32,-0.946 0.729,-2.155 1.219,-3.604 1.007,-3.051 2.364,-7.275 3.832,-11.951 1.481,-4.674 2.674,-8.953 4.06,-11.835 0.669,-1.449 1.344,-2.554 1.836,-3.3 0.49,-0.747 0.802,-1.135 0.766,-1.165 -0.014,-0.011 -0.105,0.074 -0.266,0.249 -0.164,0.173 -0.393,0.438 -0.665,0.799 -0.548,0.716 -1.282,1.809 -2.003,3.257 -1.492,2.886 -2.747,7.175 -4.225,11.839 C 3.6,-12.336 2.299,-8.094 1.382,-5.015 0.955,-3.547 0.599,-2.32 0.321,-1.361 0.082,-0.495 -0.034,-0.011 0,0"
             style="fill:#ff9c6a;fill-opacity:1;fill-rule:nonzero;stroke:none"
             id="path610" />
        </g>
        <g
           id="g612"
           transform="translate(420.7031,356.4968)">
          <path
             d="m 0,0 c 0.035,0.009 0.197,-0.469 0.459,-1.341 0.279,-0.971 0.637,-2.215 1.065,-3.706 0.877,-3.134 2.053,-7.472 3.322,-12.272 1.269,-4.801 2.389,-9.155 3.175,-12.313 0.363,-1.508 0.667,-2.766 0.904,-3.748 0.203,-0.888 0.298,-1.383 0.263,-1.393 -0.034,-0.009 -0.196,0.468 -0.458,1.34 -0.279,0.97 -0.636,2.214 -1.065,3.704 -0.877,3.134 -2.054,7.474 -3.323,12.277 C 3.074,-12.651 1.953,-8.296 1.167,-5.138 0.803,-3.631 0.5,-2.373 0.263,-1.391 0.061,-0.504 -0.035,-0.009 0,0"
             style="fill:#ff9c6a;fill-opacity:1;fill-rule:nonzero;stroke:none"
             id="path614" />
        </g>
      </g>
    </g>
  </g>
</svg>
